<svg width="462" height="462" viewBox="0 0 462 462" fill="none" xmlns="http://www.w3.org/2000/svg">
<path d="M154.484 66.454C154.484 66.454 84.4722 102.12 49.5542 157.08C14.6363 212.039 17.399 282.744 59.8291 335.227C102.259 387.71 183.359 380.817 251.263 414.063C319.168 447.308 394.086 440.461 426.195 370.025C458.304 299.588 409.887 273.264 401.57 191.748C393.254 110.233 319.769 -9.12919 154.484 66.454Z" fill="#4BAA4D"/>
<path opacity="0.7" d="M154.484 66.454C154.484 66.454 84.4722 102.12 49.5542 157.08C14.6363 212.039 17.399 282.744 59.8291 335.227C102.259 387.71 183.359 380.817 251.263 414.063C319.168 447.308 394.086 440.461 426.195 370.025C458.304 299.588 409.887 273.264 401.57 191.748C393.254 110.233 319.769 -9.12919 154.484 66.454Z" fill="white"/>
<path d="M158.05 113.652H78.697V185.715H158.05V113.652Z" fill="#4BAA4D"/>
<mask id="mask0_16_521" style="mask-type:luminance" maskUnits="userSpaceOnUse" x="78" y="113" width="81" height="73">
<path d="M158.05 113.652H78.697V185.715H158.05V113.652Z" fill="white"/>
</mask>
<g mask="url(#mask0_16_521)">
<path opacity="0.37" d="M158.05 113.652H78.697V185.715H158.05V113.652Z" fill="black"/>
</g>
<path d="M135.246 113.652H78.697V185.715H135.246V113.652Z" fill="#4BAA4D"/>
<path d="M112.709 113.652H100.559V133.767H112.709V113.652Z" fill="white"/>
<path d="M129.896 139.644H115.814V146.833H129.896V139.644Z" fill="white"/>
<path d="M123.45 165.248L108.938 161.656L106.798 170.303L121.31 173.895L123.45 165.248Z" fill="white"/>
<path d="M217.186 113.652H137.833V185.715H217.186V113.652Z" fill="#4BAA4D"/>
<mask id="mask1_16_521" style="mask-type:luminance" maskUnits="userSpaceOnUse" x="137" y="113" width="81" height="73">
<path d="M217.186 113.652H137.833V185.715H217.186V113.652Z" fill="white"/>
</mask>
<g mask="url(#mask1_16_521)">
<path opacity="0.37" d="M217.186 113.652H137.833V185.715H217.186V113.652Z" fill="black"/>
</g>
<path d="M194.382 113.652H137.833V185.715H194.382V113.652Z" fill="#4BAA4D"/>
<path d="M171.845 113.652H159.695V133.767H171.845V113.652Z" fill="white"/>
<path d="M189.032 139.644H174.95V146.833H189.032V139.644Z" fill="white"/>
<path d="M182.582 165.252L168.07 161.661L165.93 170.307L180.443 173.899L182.582 165.252Z" fill="white"/>
<path d="M276.322 113.652H196.969V185.715H276.322V113.652Z" fill="#4BAA4D"/>
<mask id="mask2_16_521" style="mask-type:luminance" maskUnits="userSpaceOnUse" x="196" y="113" width="81" height="73">
<path d="M276.322 113.652H196.969V185.715H276.322V113.652Z" fill="white"/>
</mask>
<g mask="url(#mask2_16_521)">
<path opacity="0.37" d="M276.322 113.652H196.969V185.715H276.322V113.652Z" fill="black"/>
</g>
<path d="M253.518 113.652H196.969V185.715H253.518V113.652Z" fill="#4BAA4D"/>
<path d="M230.981 113.652H218.831V133.767H230.981V113.652Z" fill="white"/>
<path d="M248.168 139.644H234.086V146.833H248.168V139.644Z" fill="white"/>
<path d="M241.714 165.257L227.202 161.665L225.062 170.312L239.575 173.903L241.714 165.257Z" fill="white"/>
<path d="M335.458 113.652H256.105V185.715H335.458V113.652Z" fill="#4BAA4D"/>
<mask id="mask3_16_521" style="mask-type:luminance" maskUnits="userSpaceOnUse" x="256" y="113" width="80" height="73">
<path d="M335.458 113.652H256.105V185.715H335.458V113.652Z" fill="white"/>
</mask>
<g mask="url(#mask3_16_521)">
<path opacity="0.37" d="M335.458 113.652H256.105V185.715H335.458V113.652Z" fill="black"/>
</g>
<path d="M312.654 113.652H256.105V185.715H312.654V113.652Z" fill="#4BAA4D"/>
<path d="M290.117 113.652H277.967V133.767H290.117V113.652Z" fill="white"/>
<path d="M307.304 139.644H293.222V146.833H307.304V139.644Z" fill="white"/>
<path d="M300.856 165.261L286.343 161.669L284.203 170.316L298.716 173.907L300.856 165.261Z" fill="white"/>
<path d="M158.05 212.52H78.697V284.583H158.05V212.52Z" fill="#4BAA4D"/>
<mask id="mask4_16_521" style="mask-type:luminance" maskUnits="userSpaceOnUse" x="78" y="212" width="81" height="73">
<path d="M158.05 212.52H78.697V284.583H158.05V212.52Z" fill="white"/>
</mask>
<g mask="url(#mask4_16_521)">
<path opacity="0.37" d="M158.05 212.52H78.697V284.583H158.05V212.52Z" fill="black"/>
</g>
<path d="M135.246 212.52H78.697V284.583H135.246V212.52Z" fill="#4BAA4D"/>
<path d="M112.709 212.52H100.559V232.636H112.709V212.52Z" fill="white"/>
<path d="M129.896 238.512H115.814V245.701H129.896V238.512Z" fill="white"/>
<path d="M123.437 264.113L108.924 260.521L106.785 269.168L121.297 272.76L123.437 264.113Z" fill="white"/>
<path d="M217.186 212.52H137.833V284.583H217.186V212.52Z" fill="#4BAA4D"/>
<mask id="mask5_16_521" style="mask-type:luminance" maskUnits="userSpaceOnUse" x="137" y="212" width="81" height="73">
<path d="M217.186 212.52H137.833V284.583H217.186V212.52Z" fill="white"/>
</mask>
<g mask="url(#mask5_16_521)">
<path opacity="0.37" d="M217.186 212.52H137.833V284.583H217.186V212.52Z" fill="black"/>
</g>
<path d="M194.382 212.52H137.833V284.583H194.382V212.52Z" fill="#4BAA4D"/>
<path d="M171.845 212.52H159.695V232.636H171.845V212.52Z" fill="white"/>
<path d="M189.032 238.512H174.95V245.701H189.032V238.512Z" fill="white"/>
<path d="M182.578 264.117L168.066 260.526L165.926 269.172L180.438 272.764L182.578 264.117Z" fill="white"/>
<path d="M276.322 212.52H196.969V284.583H276.322V212.52Z" fill="#4BAA4D"/>
<mask id="mask6_16_521" style="mask-type:luminance" maskUnits="userSpaceOnUse" x="196" y="212" width="81" height="73">
<path d="M276.322 212.52H196.969V284.583H276.322V212.52Z" fill="white"/>
</mask>
<g mask="url(#mask6_16_521)">
<path opacity="0.37" d="M276.322 212.52H196.969V284.583H276.322V212.52Z" fill="black"/>
</g>
<path d="M253.518 212.52H196.969V284.583H253.518V212.52Z" fill="#4BAA4D"/>
<path d="M230.981 212.52H218.831V232.636H230.981V212.52Z" fill="white"/>
<path d="M248.168 238.512H234.086V245.701H248.168V238.512Z" fill="white"/>
<path d="M241.71 264.122L227.198 260.53L225.058 269.177L239.57 272.768L241.71 264.122Z" fill="white"/>
<path d="M335.458 212.52H256.105V284.583H335.458V212.52Z" fill="#4BAA4D"/>
<mask id="mask7_16_521" style="mask-type:luminance" maskUnits="userSpaceOnUse" x="256" y="212" width="80" height="73">
<path d="M335.458 212.52H256.105V284.583H335.458V212.52Z" fill="white"/>
</mask>
<g mask="url(#mask7_16_521)">
<path opacity="0.37" d="M335.458 212.52H256.105V284.583H335.458V212.52Z" fill="black"/>
</g>
<path d="M312.654 212.52H256.105V284.583H312.654V212.52Z" fill="#4BAA4D"/>
<path d="M290.117 212.52H277.967V232.636H290.117V212.52Z" fill="white"/>
<path d="M307.304 238.512H293.222V245.701H307.304V238.512Z" fill="white"/>
<path d="M300.843 264.126L286.33 260.534L284.19 269.181L298.703 272.772L300.843 264.126Z" fill="white"/>
<path d="M158.05 311.388H78.697V383.451H158.05V311.388Z" fill="#4BAA4D"/>
<mask id="mask8_16_521" style="mask-type:luminance" maskUnits="userSpaceOnUse" x="78" y="311" width="81" height="73">
<path d="M158.05 311.388H78.697V383.451H158.05V311.388Z" fill="white"/>
</mask>
<g mask="url(#mask8_16_521)">
<path opacity="0.37" d="M158.05 311.388H78.697V383.451H158.05V311.388Z" fill="black"/>
</g>
<path d="M135.246 311.388H78.697V383.451H135.246V311.388Z" fill="#4BAA4D"/>
<path d="M112.709 311.388H100.559V331.503H112.709V311.388Z" fill="white"/>
<path d="M129.896 337.38H115.814V344.569H129.896V337.38Z" fill="white"/>
<path d="M123.433 362.978L108.92 359.386L106.78 368.033L121.293 371.624L123.433 362.978Z" fill="white"/>
<path d="M217.186 311.388H137.833V383.451H217.186V311.388Z" fill="#4BAA4D"/>
<mask id="mask9_16_521" style="mask-type:luminance" maskUnits="userSpaceOnUse" x="137" y="311" width="81" height="73">
<path d="M217.186 311.388H137.833V383.451H217.186V311.388Z" fill="white"/>
</mask>
<g mask="url(#mask9_16_521)">
<path opacity="0.37" d="M217.186 311.388H137.833V383.451H217.186V311.388Z" fill="black"/>
</g>
<path d="M194.382 311.388H137.833V383.451H194.382V311.388Z" fill="#4BAA4D"/>
<path d="M171.845 311.388H159.695V331.503H171.845V311.388Z" fill="white"/>
<path d="M189.032 337.38H174.95V344.569H189.032V337.38Z" fill="white"/>
<path d="M182.574 362.982L168.062 359.391L165.922 368.037L180.434 371.629L182.574 362.982Z" fill="white"/>
<path d="M276.322 311.388H196.969V383.451H276.322V311.388Z" fill="#4BAA4D"/>
<mask id="mask10_16_521" style="mask-type:luminance" maskUnits="userSpaceOnUse" x="196" y="311" width="81" height="73">
<path d="M276.322 311.388H196.969V383.451H276.322V311.388Z" fill="white"/>
</mask>
<g mask="url(#mask10_16_521)">
<path opacity="0.37" d="M276.322 311.388H196.969V383.451H276.322V311.388Z" fill="black"/>
</g>
<path d="M253.518 311.388H196.969V383.451H253.518V311.388Z" fill="#4BAA4D"/>
<path d="M230.981 311.388H218.831V331.503H230.981V311.388Z" fill="white"/>
<path d="M248.168 337.38H234.086V344.569H248.168V337.38Z" fill="white"/>
<path d="M241.706 362.986L227.194 359.395L225.054 368.041L239.567 371.633L241.706 362.986Z" fill="white"/>
<path d="M335.458 311.388H256.105V383.451H335.458V311.388Z" fill="#4BAA4D"/>
<mask id="mask11_16_521" style="mask-type:luminance" maskUnits="userSpaceOnUse" x="256" y="311" width="80" height="73">
<path d="M335.458 311.388H256.105V383.451H335.458V311.388Z" fill="white"/>
</mask>
<g mask="url(#mask11_16_521)">
<path opacity="0.37" d="M335.458 311.388H256.105V383.451H335.458V311.388Z" fill="black"/>
</g>
<path d="M312.654 311.388H256.105V383.451H312.654V311.388Z" fill="#4BAA4D"/>
<path d="M290.117 311.388H277.967V331.503H290.117V311.388Z" fill="white"/>
<path d="M307.304 337.38H293.222V344.569H307.304V337.38Z" fill="white"/>
<path d="M300.838 362.991L286.326 359.399L284.186 368.046L298.699 371.637L300.838 362.991Z" fill="white"/>
<path d="M342.804 87.1702H65.604V100.106H342.804V87.1702Z" fill="#A3A3A3"/>
<path d="M342.804 183.266H65.604V196.202H342.804V183.266Z" fill="#A3A3A3"/>
<path d="M342.804 279.353H65.604V292.289H342.804V279.353Z" fill="#A3A3A3"/>
<path d="M342.804 375.449H65.604V388.385H342.804V375.449Z" fill="#A3A3A3"/>
<path d="M395.472 32.6541H383.46V425.354H395.472V32.6541Z" fill="#7A7A7A"/>
<path d="M139.524 32.6541H127.512V425.354H139.524V32.6541Z" fill="#7A7A7A"/>
<path d="M392.7 87.1702H336.336V100.106H392.7V87.1702Z" fill="#757575"/>
<path d="M392.7 183.266H336.336V196.202H392.7V183.266Z" fill="#757575"/>
<path d="M392.7 279.353H336.336V292.289H392.7V279.353Z" fill="#757575"/>
<path d="M392.7 375.449H336.336V388.385H392.7V375.449Z" fill="#757575"/>
<path d="M76.6919 32.6541H64.6799V425.354H76.6919V32.6541Z" fill="#A3A3A3"/>
<path d="M209.748 32.6541H197.736V425.354H209.748V32.6541Z" fill="#A3A3A3"/>
<path d="M342.804 32.6541H330.792V425.354H342.804V32.6541Z" fill="#A3A3A3"/>
<path d="M318.53 169.138H224.264V254.738H318.53V169.138Z" fill="#4BAA4D"/>
<mask id="mask12_16_521" style="mask-type:luminance" maskUnits="userSpaceOnUse" x="224" y="169" width="95" height="86">
<path d="M318.53 169.138H224.264V254.738H318.53V169.138Z" fill="white"/>
</mask>
<g mask="url(#mask12_16_521)">
<path opacity="0.37" d="M318.53 169.138H224.264V254.738H318.53V169.138Z" fill="black"/>
</g>
<path d="M318.53 169.138H224.264V254.738H318.53V169.138Z" stroke="#263238" stroke-linecap="round" stroke-linejoin="round"/>
<path d="M291.448 169.138H224.264V254.738H291.448V169.138Z" fill="#4BAA4D" stroke="#263238" stroke-linecap="round" stroke-linejoin="round"/>
<path d="M264.661 169.138H250.229V193.033H264.661V169.138Z" fill="white" stroke="#263238" stroke-linecap="round" stroke-linejoin="round"/>
<path d="M285.091 200.009H268.357V208.547H285.091V200.009Z" fill="white"/>
<path d="M277.41 230.431L260.171 226.165L257.627 236.443L274.866 240.71L277.41 230.431Z" fill="white"/>
<path d="M261.834 339.746H167.567V425.345H261.834V339.746Z" fill="#4BAA4D"/>
<mask id="mask13_16_521" style="mask-type:luminance" maskUnits="userSpaceOnUse" x="167" y="339" width="95" height="87">
<path d="M261.834 339.746H167.567V425.345H261.834V339.746Z" fill="white"/>
</mask>
<g mask="url(#mask13_16_521)">
<path opacity="0.37" d="M261.834 339.746H167.567V425.345H261.834V339.746Z" fill="black"/>
</g>
<path d="M261.834 339.746H167.567V425.345H261.834V339.746Z" stroke="#263238" stroke-linecap="round" stroke-linejoin="round"/>
<path d="M234.751 339.746H167.567V425.345H234.751V339.746Z" fill="#4BAA4D" stroke="#263238" stroke-linecap="round" stroke-linejoin="round"/>
<path d="M207.965 339.746H193.532V363.64H207.965V339.746Z" fill="white" stroke="#263238" stroke-linecap="round" stroke-linejoin="round"/>
<path d="M190.834 409.896H174.1V418.433H190.834V409.896Z" fill="white"/>
<path d="M225.977 370.527L208.738 366.26L206.194 376.539L223.433 380.806L225.977 370.527Z" fill="white"/>
<path d="M331.152 339.746H236.886V425.345H331.152V339.746Z" fill="#4BAA4D"/>
<mask id="mask14_16_521" style="mask-type:luminance" maskUnits="userSpaceOnUse" x="236" y="339" width="96" height="87">
<path d="M331.152 339.746H236.886V425.345H331.152V339.746Z" fill="white"/>
</mask>
<g mask="url(#mask14_16_521)">
<path opacity="0.37" d="M331.152 339.746H236.886V425.345H331.152V339.746Z" fill="black"/>
</g>
<path d="M331.152 339.746H236.886V425.345H331.152V339.746Z" stroke="#263238" stroke-linecap="round" stroke-linejoin="round"/>
<path d="M304.07 339.746H236.886V425.345H304.07V339.746Z" fill="#4BAA4D" stroke="#263238" stroke-linecap="round" stroke-linejoin="round"/>
<path d="M277.283 339.746H262.85V363.64H277.283V339.746Z" fill="white" stroke="#263238" stroke-linecap="round" stroke-linejoin="round"/>
<path d="M297.713 370.625H280.979V379.163H297.713V370.625Z" fill="white"/>
<path d="M260.457 364.723L243.218 360.457L240.674 370.736L257.913 375.002L260.457 364.723Z" fill="white"/>
<path d="M401.376 339.746H307.11V425.345H401.376V339.746Z" fill="#4BAA4D"/>
<mask id="mask15_16_521" style="mask-type:luminance" maskUnits="userSpaceOnUse" x="307" y="339" width="95" height="87">
<path d="M401.376 339.746H307.11V425.345H401.376V339.746Z" fill="white"/>
</mask>
<g mask="url(#mask15_16_521)">
<path opacity="0.37" d="M401.376 339.746H307.11V425.345H401.376V339.746Z" fill="black"/>
</g>
<path d="M401.376 339.746H307.11V425.345H401.376V339.746Z" stroke="#263238" stroke-linecap="round" stroke-linejoin="round"/>
<path d="M374.294 339.746H307.11V425.345H374.294V339.746Z" fill="#4BAA4D" stroke="#263238" stroke-linecap="round" stroke-linejoin="round"/>
<path d="M347.507 339.746H333.074V363.64H347.507V339.746Z" fill="white" stroke="#263238" stroke-linecap="round" stroke-linejoin="round"/>
<path d="M367.937 370.625H351.203V379.163H367.937V370.625Z" fill="white"/>
<path d="M330.676 364.73L313.437 360.464L310.893 370.743L328.132 375.009L330.676 364.73Z" fill="white"/>
<path d="M294.34 254.377H200.074V339.977H294.34V254.377Z" fill="#4BAA4D"/>
<mask id="mask16_16_521" style="mask-type:luminance" maskUnits="userSpaceOnUse" x="200" y="254" width="95" height="86">
<path d="M294.34 254.377H200.074V339.977H294.34V254.377Z" fill="white"/>
</mask>
<g mask="url(#mask16_16_521)">
<path opacity="0.37" d="M294.34 254.377H200.074V339.977H294.34V254.377Z" fill="black"/>
</g>
<path d="M294.34 254.377H200.074V339.977H294.34V254.377Z" stroke="#263238" stroke-linecap="round" stroke-linejoin="round"/>
<path d="M267.258 254.377H200.074V339.977H267.258V254.377Z" fill="#4BAA4D" stroke="#263238" stroke-linecap="round" stroke-linejoin="round"/>
<path d="M240.462 254.377H226.029V278.272H240.462V254.377Z" fill="white" stroke="#263238" stroke-linecap="round" stroke-linejoin="round"/>
<path d="M260.901 285.257H244.167V293.795H260.901V285.257Z" fill="white"/>
<path d="M223.637 279.357L206.398 275.091L203.854 285.37L221.093 289.636L223.637 279.357Z" fill="white"/>
<path d="M369.184 254.377H274.918V339.977H369.184V254.377Z" fill="#4BAA4D"/>
<mask id="mask17_16_521" style="mask-type:luminance" maskUnits="userSpaceOnUse" x="274" y="254" width="96" height="86">
<path d="M369.184 254.377H274.918V339.977H369.184V254.377Z" fill="white"/>
</mask>
<g mask="url(#mask17_16_521)">
<path opacity="0.37" d="M369.184 254.377H274.918V339.977H369.184V254.377Z" fill="black"/>
</g>
<path d="M369.184 254.377H274.918V339.977H369.184V254.377Z" stroke="#263238" stroke-linecap="round" stroke-linejoin="round"/>
<path d="M342.102 254.377H274.918V339.977H342.102V254.377Z" fill="#4BAA4D" stroke="#263238" stroke-linecap="round" stroke-linejoin="round"/>
<path d="M315.306 254.377H300.873V278.272H315.306V254.377Z" fill="white" stroke="#263238" stroke-linecap="round" stroke-linejoin="round"/>
<path d="M335.745 285.257H319.011V293.795H335.745V285.257Z" fill="white"/>
<path d="M302.635 299.601L285.396 295.334L282.852 305.613L300.091 309.879L302.635 299.601Z" fill="white"/>
<path d="M35.4817 425.345H440.194" stroke="#263238" stroke-linecap="round" stroke-linejoin="round"/>
<path d="M107.369 397.754C107.369 397.754 103.488 405.636 100.716 410.09C97.9439 414.543 92.7972 420.401 93.3239 425.557C93.8506 430.713 99.219 431.268 104.745 428.329C110.27 425.391 115.241 419.496 116.757 415.07C118.272 410.644 123.021 406.967 123.021 401.995C123.021 397.024 122.652 396.451 120.813 395.915C118.974 395.38 109.207 394.622 107.369 397.754Z" fill="white" stroke="#263238" stroke-linecap="round" stroke-linejoin="round"/>
<path d="M123.021 401.986C123.021 401.256 123.021 400.628 123.021 400.073C122.51 401.612 121.893 403.112 121.173 404.564C119.14 408.62 116.193 411.032 115.093 415.985C113.994 420.937 106.99 426.666 100.91 428.135C94.83 429.605 93.5179 424.643 93.5179 424.643H93.2962C93.2737 424.95 93.2737 425.259 93.2962 425.567C93.8506 430.723 99.1913 431.277 104.717 428.339C110.242 425.4 115.213 419.505 116.729 415.079C118.244 410.653 123.021 406.957 123.021 401.986Z" fill="#263238" stroke="#263238" stroke-linecap="round" stroke-linejoin="round"/>
<path d="M108.108 401.062C108.108 401.062 110.326 404.194 117.69 403.28" stroke="#263238" stroke-linecap="round" stroke-linejoin="round"/>
<path d="M107.923 403.649C110.112 405.371 112.889 406.164 115.657 405.858" stroke="#263238" stroke-linecap="round" stroke-linejoin="round"/>
<path d="M107.184 405.858C107.997 406.738 109.007 407.414 110.131 407.83C111.255 408.246 112.462 408.39 113.652 408.251" stroke="#263238" stroke-linecap="round" stroke-linejoin="round"/>
<path d="M106.445 408.99C106.445 408.99 107.738 411.568 112.71 411.014" stroke="#263238" stroke-linecap="round" stroke-linejoin="round"/>
<path d="M154.511 404.712C157.282 409.074 161.092 412.68 165.599 415.209C172.779 419.08 181.991 421.677 182.721 423.525C183.029 424.195 183.088 424.954 182.886 425.663C182.685 426.373 182.236 426.988 181.621 427.396C180.697 427.941 167.068 428.32 159.889 427.027C155.837 426.161 151.695 425.788 147.553 425.918C144.236 425.918 137.057 426.842 136.133 422.785C135.209 418.729 137.602 404 137.602 404C137.602 404 148.431 407.142 154.511 404.712Z" fill="white" stroke="#263238" stroke-miterlimit="10"/>
<path d="M181.584 427.405C182.06 427.091 182.438 426.648 182.673 426.128C182.909 425.608 182.992 425.033 182.915 424.467C180.056 425.164 177.15 425.652 174.22 425.927C166.828 426.666 155.805 424.273 147.147 423.904C140.79 423.636 137.316 422.166 135.92 421.418C135.945 421.881 136.004 422.341 136.096 422.795C137.02 426.851 144.199 425.927 147.517 425.927C151.658 425.798 155.8 426.17 159.852 427.036C167.031 428.32 180.66 427.951 181.584 427.405Z" fill="#263238" stroke="#263238" stroke-miterlimit="10"/>
<path d="M157.274 408.99C155.854 410.124 154.719 411.573 153.957 413.222" stroke="#263238" stroke-miterlimit="10"/>
<path d="M159.482 411.744C159.482 411.744 157.089 413.776 157.089 415.061" stroke="#263238" stroke-miterlimit="10"/>
<path d="M161.876 413.592C161.256 414.635 160.763 415.749 160.406 416.909" stroke="#263238" stroke-miterlimit="10"/>
<path d="M165.562 415.246C165.562 415.246 164.084 416.539 164.084 417.824" stroke="#263238" stroke-miterlimit="10"/>
<path d="M102.499 209.129C102.499 209.129 96.6411 237.006 97.1031 252.252C97.5651 267.498 118.355 305.382 118.355 305.382C118.355 305.382 107.267 332.64 106.805 344.652C106.343 356.664 107.286 395.333 107.286 395.333C107.286 395.333 111.906 398.013 116.091 398.013C120.277 398.013 125.276 395.906 125.276 395.906L135.911 354.326L136.373 404.684C139.45 406.507 142.961 407.465 146.537 407.456C150.175 407.434 153.72 406.307 156.701 404.222C156.701 404.222 164.093 351.092 165.017 342.314C165.941 333.536 171.947 307.202 172.409 305.354C172.871 303.506 181.649 274.4 181.649 250.838C181.649 227.276 174.876 213.111 174.876 213.111C174.876 213.111 151.157 207.872 133.601 207.41C123.204 207.124 112.801 207.698 102.499 209.129Z" fill="#263238" stroke="#263238" stroke-linecap="round" stroke-linejoin="round"/>
<path d="M139.145 347.424C139.145 347.424 151.157 313.236 151.157 304.92C151.157 296.604 143.303 244.86 143.303 244.86" stroke="#878787" stroke-miterlimit="10"/>
<path d="M146.537 260.568C146.537 260.568 153.467 252.714 155.777 248.094" stroke="#878787" stroke-miterlimit="10"/>
<path d="M173.952 138.295C173.952 138.295 183.497 143.839 188.736 152.155C193.975 160.471 205.368 195.583 204.749 204.509C204.13 213.435 201.367 215.911 193.356 214.368C185.345 212.825 184.735 203.899 182.887 196.507C181.039 189.115 171.18 142.296 171.18 142.296L170.875 137.981L173.952 138.295Z" fill="white" stroke="#263238" stroke-linecap="round" stroke-linejoin="round"/>
<path d="M204.749 204.509C205.063 199.963 202.263 188.616 198.743 177.482L179.256 180.18C180.891 187.757 182.296 194.123 182.887 196.479C184.735 203.871 185.345 212.797 193.356 214.34C201.367 215.883 204.139 213.444 204.749 204.509Z" fill="#CFCFCF" stroke="#263238" stroke-linecap="round" stroke-linejoin="round"/>
<path d="M110.196 135.523C110.196 135.523 102.804 137.057 100.956 149.993C99.1082 162.929 103.423 184.181 103.423 184.181L102.499 209.129C102.499 209.129 133.296 217.14 145.927 217.14C158.558 217.14 174.876 213.139 174.876 213.139C174.876 213.139 168.103 150.917 166.865 145.687C165.627 140.457 160.092 135.209 155.472 131.827C150.852 128.445 139.145 128.741 132.372 130.589C125.599 132.437 116.045 136.133 116.045 136.133L110.196 135.523Z" fill="white" stroke="#263238" stroke-linecap="round" stroke-linejoin="round"/>
<path d="M132.372 126.893C132.372 126.893 138.84 153.079 139.459 170.94C140.078 188.801 136.687 244.241 136.687 244.241C136.687 244.241 122.208 244.86 111.739 243.012C101.27 241.164 93.8691 240.24 93.8691 240.24L103.109 182.647C103.109 182.647 115.74 183.571 118.512 174.636C121.284 165.701 117.588 147.84 114.197 142.296C110.806 136.752 110.196 135.523 110.196 135.523L132.372 126.893Z" fill="#4BAA4D" stroke="#263238" stroke-linecap="round" stroke-linejoin="round"/>
<path d="M160.397 151.231C160.397 151.231 167.179 177.103 166.56 202.975C165.941 228.847 165.636 242.707 165.636 242.707C165.636 242.707 180.42 241.783 188.736 238.392C188.736 238.392 184.116 178.027 179.801 160.157C175.486 142.287 173.952 138.295 173.952 138.295L156.701 131.208L160.397 151.231Z" fill="#4BAA4D" stroke="#263238" stroke-linecap="round" stroke-linejoin="round"/>
<path d="M139.007 121.866C139.007 121.866 132.539 123.068 130.838 126.431C129.138 129.794 137.565 157.422 137.565 157.422L149.817 147.332L164.952 155.98C164.952 155.98 162.07 135.08 155.823 127.872C149.577 120.665 139.007 121.866 139.007 121.866Z" fill="white" stroke="#263238" stroke-linecap="round" stroke-linejoin="round"/>
<path d="M136.364 104.338C136.364 104.338 136.124 128.593 138.766 134.83C141.409 141.067 148.376 150.205 151.018 148.764C153.661 147.322 154.382 129.785 154.862 128.584C155.343 127.382 157.265 117.496 157.265 117.496C157.265 117.496 139.967 112.728 136.364 104.338Z" fill="#CFCFCF" stroke="#263238" stroke-linecap="round" stroke-linejoin="round"/>
<path d="M136.364 104.338C136.364 104.338 136.272 114.077 136.872 122.818C139.629 126.083 143.503 128.204 147.738 128.768C150.096 129.125 152.496 129.094 154.844 128.676C154.84 128.655 154.84 128.633 154.844 128.611C155.324 127.41 157.246 117.523 157.246 117.523C157.246 117.523 139.968 112.728 136.364 104.338Z" fill="#263238" stroke="#263238" stroke-linecap="round" stroke-linejoin="round"/>
<path d="M163.391 187.794L161.543 188.921L150.852 171.448C150.705 171.204 150.661 170.912 150.728 170.635C150.796 170.358 150.97 170.119 151.213 169.97C151.333 169.895 151.466 169.846 151.606 169.823C151.745 169.8 151.887 169.805 152.025 169.838C152.162 169.871 152.292 169.93 152.406 170.013C152.52 170.096 152.617 170.201 152.691 170.321L163.391 187.794Z" fill="white" stroke="#263238" stroke-linecap="round" stroke-linejoin="round"/>
<path d="M110.196 135.523C110.196 135.523 103.109 136.133 98.8033 144.449C94.4975 152.765 87.7153 191.887 86.4771 203.28C85.239 214.673 92.0211 213.749 92.9451 213.749C93.8691 213.749 142.841 197.431 142.841 197.431L159.473 195.583C159.473 195.583 157.625 197.117 159.168 197.117C160.711 197.117 163.788 194.04 165.017 192.192C166.246 190.344 161.321 180.18 159.473 178.951C157.625 177.722 140.993 190.039 140.993 190.039L108.653 192.192L116.969 163.853" fill="white"/>
<path d="M110.196 135.523C110.196 135.523 103.109 136.133 98.8033 144.449C94.4975 152.765 87.7153 191.887 86.4771 203.28C85.239 214.673 92.0211 213.749 92.9451 213.749C93.8691 213.749 142.841 197.431 142.841 197.431L159.473 195.583C159.473 195.583 157.625 197.117 159.168 197.117C160.711 197.117 163.788 194.04 165.017 192.192C166.246 190.344 161.321 180.18 159.473 178.951C157.625 177.722 140.993 190.039 140.993 190.039L108.653 192.192L116.969 163.853" stroke="#263238" stroke-linecap="round" stroke-linejoin="round"/>
<path d="M159.473 178.951C157.625 177.713 140.993 190.039 140.993 190.039L108.653 192.192L110.704 185.206L90.0161 180.54C88.3067 190.03 86.9669 198.798 86.4772 203.28C85.2482 214.673 92.0212 213.749 92.9452 213.749C93.8692 213.749 142.841 197.431 142.841 197.431L159.473 195.583C159.473 195.583 157.625 197.117 159.168 197.117C160.711 197.117 163.788 194.04 165.017 192.192C166.246 190.344 161.321 180.18 159.473 178.951Z" fill="#CFCFCF" stroke="#263238" stroke-linecap="round" stroke-linejoin="round"/>
<path d="M159.473 178.951C157.625 177.713 140.993 190.039 140.993 190.039L136.281 190.353C136.263 193.336 136.997 196.276 138.415 198.9L142.841 197.431L159.473 195.583C159.473 195.583 157.625 197.117 159.168 197.117C160.711 197.117 163.788 194.04 165.017 192.192C166.246 190.344 161.321 180.18 159.473 178.951Z" fill="#666666" stroke="#263238" stroke-linecap="round" stroke-linejoin="round"/>
<path d="M175.8 164.472L144.384 208.519L185.659 206.976L215.532 166.32L175.8 164.472Z" fill="#263238" stroke="#263238" stroke-linecap="round" stroke-linejoin="round"/>
<path d="M189.669 163.178L187.258 167.188L205.322 167.595L207.734 163.576L189.669 163.178Z" fill="#263238" stroke="#263238" stroke-linecap="round" stroke-linejoin="round"/>
<path d="M201.876 189.466C200.457 189.985 198.98 190.326 197.477 190.483C195.629 190.566 193.929 191.499 193.929 192.432C193.929 193.365 197.228 193.532 199.593 193.532C201.959 193.532 203.816 193.024 204.213 191.499C204.611 189.974 204.075 188.625 201.876 189.466Z" fill="#666666" stroke="#263238" stroke-linecap="round" stroke-linejoin="round"/>
<path d="M204.001 185.336C202.212 185.991 200.35 186.426 198.457 186.629C196.1 186.731 193.957 187.914 193.957 189.087C193.957 190.261 198.133 190.483 201.136 190.483C204.139 190.483 206.495 189.845 207.031 187.914C207.567 185.983 206.791 184.264 204.001 185.336Z" fill="#666666" stroke="#263238" stroke-linecap="round" stroke-linejoin="round"/>
<path d="M205.71 181.806C203.922 182.461 202.06 182.896 200.166 183.1C197.801 183.201 195.657 184.384 195.657 185.558C195.657 186.731 199.843 186.953 202.846 186.953C205.849 186.953 208.205 186.315 208.741 184.384C209.277 182.453 208.501 180.734 205.71 181.806Z" fill="#666666" stroke="#263238" stroke-linecap="round" stroke-linejoin="round"/>
<path d="M206.865 177.814C205.076 178.465 203.214 178.896 201.321 179.099C198.965 179.2 196.821 180.383 196.821 181.566C196.821 182.749 200.998 182.961 204.001 182.961C207.004 182.961 209.36 182.314 209.896 180.383C210.432 178.452 209.656 176.743 206.865 177.814Z" fill="#666666" stroke="#263238" stroke-linecap="round" stroke-linejoin="round"/>
<path d="M106.334 386.528C106.334 386.528 106.14 396.1 106.519 397.616C106.898 399.131 113.606 401.053 117.81 401.053C122.014 401.053 124.703 400.129 125.47 398.955C126.237 397.782 127.567 389.956 127.567 389.956C127.567 389.956 112.645 393.042 106.334 386.528Z" fill="#666666" stroke="#263238" stroke-linecap="round" stroke-linejoin="round"/>
<path d="M127.512 96.6503C124.517 95.5952 121.296 95.3507 118.175 95.9413C115.055 96.532 112.146 97.9368 109.744 100.014C101.335 107.221 108.82 120.194 117.671 121.635C126.523 123.077 132.317 118.993 133.758 112.506C135.2 106.02 132.816 96.41 127.512 96.6503Z" fill="#263238" stroke="#263238" stroke-linecap="round" stroke-linejoin="round"/>
<path d="M170.016 94.4882C170.016 94.4882 168.815 106.5 166.412 114.909C164.01 123.317 157.764 126.44 148.856 125.239C139.949 124.038 134.922 116.83 132.04 108.422C129.157 100.014 128.917 88.4822 128.917 88.4822L170.016 94.4882Z" fill="#CFCFCF" stroke="#263238" stroke-linecap="round" stroke-linejoin="round"/>
<path d="M130.173 94.248C130.173 94.248 133.056 96.8906 139.524 92.3261C145.992 87.7615 142.887 85.5994 142.887 85.5994L127.512 86.5234L130.173 94.248Z" fill="#263238" stroke="#263238" stroke-linecap="round" stroke-linejoin="round"/>
<path d="M160.443 97.3711C160.443 97.3711 159.242 100.975 159.963 102.176C160.684 103.377 162.606 105.059 160.443 106.981C160.052 107.363 159.575 107.648 159.053 107.812C158.531 107.976 157.977 108.014 157.437 107.924C156.897 107.834 156.386 107.618 155.945 107.294C155.504 106.969 155.146 106.546 154.899 106.057" stroke="#263238" stroke-linecap="round" stroke-linejoin="round"/>
<path d="M147.045 108.108C147.045 108.108 150.741 112.903 157.745 110.695" stroke="#263238" stroke-linecap="round" stroke-linejoin="round"/>
<path d="M152.275 98.8126C152.275 100.143 151.739 101.215 151.074 101.215C150.409 101.215 149.873 100.143 149.873 98.8126C149.873 97.482 150.409 96.4102 151.074 96.4102C151.739 96.4102 152.275 97.482 152.275 98.8126Z" fill="#263238"/>
<path d="M165.488 100.716C165.488 102.046 164.952 103.118 164.287 103.118C163.622 103.118 163.086 102.046 163.086 100.716C163.086 99.3853 163.622 98.3135 164.287 98.3135C164.952 98.3135 165.488 99.4038 165.488 100.716Z" fill="#263238"/>
<path d="M147.23 93.5272C147.23 93.5272 150.594 89.6834 154.918 93.5272" stroke="#263238" stroke-linecap="round" stroke-linejoin="round"/>
<path d="M162.624 95.4491C163.364 94.903 164.27 94.6287 165.189 94.6725C166.108 94.7163 166.984 95.0754 167.669 95.6893" stroke="#263238" stroke-linecap="round" stroke-linejoin="round"/>
<path d="M126.588 89.4431L171.273 94.2479C171.273 94.2479 170.792 71.6654 170.552 67.8308C170.312 63.9962 152.534 58.7017 145.604 59.1821C138.674 59.6626 129.988 63.7467 128.547 65.6501C127.105 67.5536 126.588 89.4431 126.588 89.4431Z" fill="#4BAA4D" stroke="#263238" stroke-linecap="round" stroke-linejoin="round"/>
<path d="M145.789 91.8455L185.419 97.1308C185.419 97.1308 174.858 88.0016 166.449 87.2809C158.041 86.5602 145.789 91.8455 145.789 91.8455Z" fill="#4BAA4D" stroke="#263238" stroke-linecap="round" stroke-linejoin="round"/>
<path d="M131.855 95.9296C131.855 95.9296 130.931 88.4822 126.81 88.4822C122.689 88.4822 124.647 94.4882 125.128 98.332C125.608 102.176 130.173 103.137 131.855 101.695" fill="#CFCFCF"/>
<path d="M131.855 95.9296C131.855 95.9296 130.931 88.4822 126.81 88.4822C122.689 88.4822 124.647 94.4882 125.128 98.332C125.608 102.176 130.173 103.137 131.855 101.695" stroke="#263238" stroke-linecap="round" stroke-linejoin="round"/>
<path d="M135.994 396.479L136.567 405.479C136.567 405.479 139.108 407.382 146.537 407.484C153.966 407.585 156.701 404.25 156.701 404.25L158.189 394.548C158.189 394.548 144.412 401.071 135.994 396.479Z" fill="#666666" stroke="#263238" stroke-linecap="round" stroke-linejoin="round"/>
</svg>
