<svg width="47" height="47" viewBox="0 0 47 47" fill="none" xmlns="http://www.w3.org/2000/svg">
<path d="M18.7295 17.0962L19.738 20.7446C20.6878 24.1815 21.1617 25.9009 22.558 26.6823C23.9543 27.4656 25.7266 27.0034 29.2712 26.083L33.0312 25.1039C36.5758 24.1834 38.3481 23.7232 39.1549 22.37C39.9617 21.0149 39.4878 19.2954 38.5361 15.8586L37.5295 12.2121C36.5797 8.77331 36.1038 7.05389 34.7095 6.27252C33.3112 5.48918 31.5389 5.95135 27.9944 6.87373L24.2344 7.84898C20.6898 8.76939 18.9175 9.23156 18.1126 10.5867C17.3058 11.9399 17.7797 13.6593 18.7295 17.0962Z" fill="#4BAA4D"/>
<path d="M4.45913 10.2754C4.51072 10.0894 4.59847 9.91536 4.71736 9.76331C4.83625 9.61125 4.98394 9.48411 5.15199 9.38917C5.32005 9.29424 5.50517 9.23335 5.69677 9.21C5.88837 9.18666 6.08269 9.2013 6.26863 9.25311L9.60367 10.1774C10.4873 10.418 11.2936 10.8831 11.9442 11.5276C12.5949 12.1721 13.0677 12.9739 13.3167 13.8552L17.529 29.1028L17.8385 30.174C19.0874 30.6343 20.1399 31.5104 20.819 32.6552L21.4261 32.4672L38.7965 27.9532C38.9833 27.9046 39.1777 27.8933 39.3688 27.9198C39.5599 27.9464 39.7439 28.0103 39.9103 28.1079C40.0767 28.2056 40.2222 28.3351 40.3386 28.4889C40.4549 28.6428 40.5398 28.8181 40.5884 29.0049C40.637 29.1916 40.6484 29.386 40.6218 29.5771C40.5953 29.7682 40.5314 29.9522 40.4337 30.1186C40.3361 30.285 40.2066 30.4305 40.0527 30.5469C39.8988 30.6632 39.7235 30.7481 39.5368 30.7967L22.231 35.2931L21.5848 35.4928C21.573 37.9799 19.8555 40.2555 17.2568 40.9291C14.1431 41.7399 10.9412 39.9461 10.107 36.9263C9.27271 33.9066 11.1214 30.7987 14.2351 29.9899C14.3905 29.9507 14.5452 29.9168 14.6993 29.8881L10.4849 14.6366C10.371 14.245 10.1579 13.8895 9.86624 13.6044C9.57463 13.3193 9.21438 13.1143 8.82034 13.0092L5.48334 12.0829C5.29738 12.0315 5.12337 11.944 4.97125 11.8253C4.81913 11.7066 4.69188 11.5592 4.59677 11.3913C4.50166 11.2235 4.44055 11.0385 4.41693 10.847C4.39331 10.6555 4.40765 10.4613 4.45913 10.2754Z" fill="#4BAA4D"/>
</svg>
