<svg width="44" height="44" viewBox="0 0 44 44" fill="none" xmlns="http://www.w3.org/2000/svg">
<path d="M14.6667 36.6666H29.3334V31.1666C29.3334 29.15 28.6153 27.4236 27.1792 25.9875C25.7431 24.5513 24.0167 23.8333 22 23.8333C19.9834 23.8333 18.257 24.5513 16.8209 25.9875C15.3848 27.4236 14.6667 29.15 14.6667 31.1666V36.6666ZM22 20.1666C24.0167 20.1666 25.7431 19.4486 27.1792 18.0125C28.6153 16.5763 29.3334 14.85 29.3334 12.8333V7.33329H14.6667V12.8333C14.6667 14.85 15.3848 16.5763 16.8209 18.0125C18.257 19.4486 19.9834 20.1666 22 20.1666ZM9.16671 40.3333C8.64727 40.3333 8.21216 40.1573 7.86138 39.8053C7.5106 39.4533 7.3346 39.0182 7.33338 38.5C7.33216 37.9817 7.50816 37.5466 7.86138 37.1946C8.2146 36.8426 8.64971 36.6666 9.16671 36.6666H11V31.1666C11 29.3027 11.4358 27.5531 12.3072 25.9178C13.1787 24.2825 14.3929 22.9765 15.95 22C14.3917 21.0222 13.1774 19.7162 12.3072 18.0821C11.437 16.448 11.0013 14.6984 11 12.8333V7.33329H9.16671C8.64727 7.33329 8.21216 7.15729 7.86138 6.80529C7.5106 6.45329 7.3346 6.01818 7.33338 5.49996C7.33216 4.98174 7.50816 4.54663 7.86138 4.19463C8.2146 3.84263 8.64971 3.66663 9.16671 3.66663H34.8334C35.3528 3.66663 35.7885 3.84263 36.1405 4.19463C36.4925 4.54663 36.6679 4.98174 36.6667 5.49996C36.6655 6.01818 36.4895 6.4539 36.1387 6.80713C35.7879 7.16035 35.3528 7.33574 34.8334 7.33329H33V12.8333C33 14.6972 32.5649 16.4468 31.6947 18.0821C30.8245 19.7175 29.6096 21.0234 28.05 22C29.6084 22.9777 30.8233 24.2843 31.6947 25.9196C32.5662 27.555 33.0013 29.304 33 31.1666V36.6666H34.8334C35.3528 36.6666 35.7885 36.8426 36.1405 37.1946C36.4925 37.5466 36.6679 37.9817 36.6667 38.5C36.6655 39.0182 36.4895 39.4539 36.1387 39.8071C35.7879 40.1603 35.3528 40.3357 34.8334 40.3333H9.16671Z" fill="#1B881D"/>
</svg>
