<svg width="134" height="131" viewBox="0 0 134 131" fill="none" xmlns="http://www.w3.org/2000/svg">
<path d="M126.327 121.508C126.327 121.547 99.763 121.576 67.0027 121.576C34.2424 121.576 7.67285 121.547 7.67285 121.508C7.67285 121.468 34.2316 121.44 67.0027 121.44C99.7737 121.44 126.327 121.471 126.327 121.508Z" fill="#263238"/>
<path d="M50.7458 31.1623L52.5092 55.5807C52.6489 57.5023 53.5285 59.3007 54.9707 60.6134C56.413 61.9261 58.3106 62.6556 60.2812 62.6547C61.3478 62.6549 62.4032 62.4408 63.3817 62.0259C64.3603 61.6109 65.2412 61.0038 65.9699 60.2423C66.6986 59.4808 67.2595 58.5811 67.6179 57.5989C67.9762 56.6168 68.1244 55.5731 68.0532 54.5327C67.8977 52.2087 67.7557 50.3066 67.7557 50.3066C67.7557 50.3066 73.8045 49.387 73.8795 43.4763C73.9224 40.0703 73.3194 32.3151 72.8075 26.3808C72.6383 24.4457 71.7323 22.6432 70.2688 21.3298C68.8053 20.0165 66.8908 19.288 64.9042 19.2885H61.2406C59.7464 19.3736 58.2849 19.751 56.9426 20.3983C55.6003 21.0456 54.4045 21.9495 53.4259 23.0567C52.4473 24.1638 51.7059 25.4517 51.2455 26.8439C50.7852 28.2362 50.6152 29.7047 50.7458 31.1623Z" fill="#B78876"/>
<path d="M67.761 50.2332C67.761 50.2332 63.9394 50.5371 59.8792 48.0428C59.8792 48.0428 61.7418 52.2977 67.7744 51.7659L67.761 50.2332Z" fill="#AA6550"/>
<path d="M70.9181 33.536C70.9203 33.7562 70.8344 33.9685 70.6787 34.1276C70.5229 34.2867 70.3098 34.3799 70.0846 34.3875C69.9749 34.396 69.8645 34.383 69.76 34.3492C69.6555 34.3155 69.5589 34.2616 69.476 34.1908C69.3931 34.12 69.3255 34.0337 69.2772 33.937C69.229 33.8403 69.201 33.7351 69.1949 33.6277C69.1926 33.4076 69.2781 33.1954 69.4332 33.036C69.5883 32.8765 69.8008 32.7824 70.0257 32.7735C70.1358 32.765 70.2465 32.7781 70.3513 32.812C70.4562 32.8459 70.553 32.8999 70.6362 32.971C70.7193 33.042 70.7871 33.1286 70.8355 33.2256C70.8839 33.3226 70.912 33.4282 70.9181 33.536Z" fill="#263238"/>
<path d="M71.7543 32.3202C71.6471 32.4303 70.9932 31.9587 70.0659 31.9613C69.1386 31.9639 68.4579 32.4172 68.3534 32.3071C68.3051 32.2573 68.415 32.0451 68.7098 31.846C69.112 31.5742 69.5903 31.4305 70.0793 31.4347C70.5608 31.4327 71.0304 31.5815 71.4193 31.8591C71.7114 32.0739 71.8079 32.2731 71.7543 32.3202Z" fill="#263238"/>
<path d="M61.8517 33.536C61.8539 33.7562 61.768 33.9685 61.6123 34.1276C61.4565 34.2867 61.2433 34.38 61.0182 34.3875C60.9085 34.3961 60.7981 34.3831 60.6936 34.3493C60.5891 34.3155 60.4925 34.2616 60.4096 34.1908C60.3267 34.12 60.2591 34.0338 60.2108 33.937C60.1626 33.8403 60.1345 33.7352 60.1285 33.6277C60.1262 33.4072 60.2121 33.1946 60.3677 33.0351C60.5234 32.8756 60.7366 32.7818 60.9619 32.7736C61.0718 32.7654 61.1822 32.7787 61.2868 32.8128C61.3913 32.8469 61.4878 32.901 61.5707 32.972C61.6536 33.043 61.7211 33.1295 61.7694 33.2263C61.8176 33.3232 61.8456 33.4284 61.8517 33.536Z" fill="#263238"/>
<path d="M62.6236 32.4879C62.5164 32.598 61.8598 32.1237 60.9325 32.1264C60.0052 32.129 59.3245 32.5849 59.22 32.4722C59.1717 32.4224 59.2789 32.2259 59.5764 32.0137C59.9794 31.7432 60.457 31.5989 60.9459 31.5997C61.4269 31.6014 61.8953 31.7498 62.2859 32.0242C62.578 32.2416 62.6745 32.4408 62.6236 32.4879Z" fill="#263238"/>
<path d="M65.995 39.2265C65.995 39.1741 66.5685 39.0772 67.5038 38.9645C67.7396 38.9383 67.9648 38.8938 68.005 38.734C68.0255 38.4947 67.9703 38.2551 67.8468 38.0475C67.6253 37.4869 67.3912 36.8982 67.1447 36.2817C66.1718 33.7665 65.4643 31.6993 65.5688 31.6626C65.6734 31.6259 66.547 33.6328 67.5226 36.1454C67.7566 36.7672 67.9808 37.3602 68.1952 37.9244C68.2837 38.1864 68.4391 38.4851 68.3158 38.8335C68.2822 38.9154 68.2295 38.9885 68.1621 39.0471C68.0947 39.1058 68.0143 39.1484 67.9272 39.1715C67.7965 39.2079 67.6612 39.2265 67.5252 39.2265C66.5819 39.2737 65.9976 39.2789 65.995 39.2265Z" fill="#263238"/>
<path d="M63.2613 39.8554C63.4114 39.8554 63.4141 40.8327 64.277 41.5322C65.14 42.2318 66.212 42.1244 66.22 42.2606C66.2361 42.3235 65.9815 42.4519 65.5286 42.465C64.9376 42.4731 64.3626 42.2773 63.9045 41.9121C63.4648 41.5611 63.1822 41.0565 63.1166 40.5052C63.0791 40.086 63.1916 39.8502 63.2613 39.8554Z" fill="#263238"/>
<path d="M62.862 28.93C62.7709 29.192 61.8436 29.061 60.7529 29.192C59.6621 29.323 58.7804 29.6112 58.6357 29.3885C58.5714 29.2837 58.7241 29.0505 59.0806 28.8121C59.5545 28.5194 60.0903 28.3359 60.6475 28.2755C61.2046 28.2152 61.7686 28.2795 62.2966 28.4637C62.712 28.6209 62.9022 28.82 62.862 28.93Z" fill="#263238"/>
<path d="M71.4139 29.6925C71.2505 29.8995 70.6099 29.6925 69.8408 29.6741C69.0716 29.6558 68.4204 29.813 68.2703 29.5982C68.2033 29.4934 68.3051 29.2864 68.5919 29.0899C68.9743 28.8557 69.4194 28.7381 69.8704 28.7521C70.3215 28.7661 70.758 28.911 71.1245 29.1685C71.3952 29.3781 71.4863 29.606 71.4139 29.6925Z" fill="#263238"/>
<path d="M52.796 35.5979C52.6914 35.5533 48.642 34.3979 48.776 38.438C48.91 42.478 53.0291 41.5164 53.0345 41.3985C53.0398 41.2806 52.796 35.5979 52.796 35.5979Z" fill="#B78876"/>
<path d="M51.7078 39.9078C51.6891 39.9078 51.6382 39.9602 51.5176 40.0179C51.3492 40.094 51.1574 40.1043 50.9816 40.0467C50.5394 39.9026 50.1508 39.2371 50.1052 38.5087C50.0846 38.1627 50.1422 37.8165 50.274 37.4948C50.31 37.3661 50.3777 37.2479 50.4711 37.1506C50.5645 37.0534 50.6809 36.9799 50.81 36.9367C50.8922 36.9129 50.9804 36.9179 51.0592 36.9509C51.138 36.9839 51.2025 37.0429 51.2415 37.1175C51.3005 37.2276 51.2764 37.3088 51.2978 37.3166C51.3192 37.3245 51.3862 37.2459 51.346 37.0782C51.3195 36.9793 51.2589 36.8924 51.1745 36.8319C51.117 36.7914 51.0519 36.7625 50.9829 36.7467C50.9139 36.731 50.8424 36.7288 50.7725 36.7402C50.6041 36.7787 50.4484 36.8585 50.3204 36.9722C50.1924 37.086 50.0962 37.2298 50.0409 37.39C49.8779 37.746 49.8052 38.1352 49.8292 38.5245C49.8828 39.3393 50.333 40.0965 50.936 40.2379C51.0483 40.2661 51.1656 40.2692 51.2793 40.247C51.393 40.2248 51.5 40.1778 51.5926 40.1096C51.7025 40.0074 51.7239 39.9157 51.7078 39.9078Z" fill="#AA6550"/>
<path d="M50.4858 35.4616C51.1156 35.3123 52.2064 35.8808 52.4744 36.4572C52.7424 37.0336 52.8014 37.6886 53.0694 38.2677C53.3374 38.8467 53.943 39.3654 54.5755 39.2187C54.7892 39.1534 54.9814 39.0338 55.1325 38.8723C55.2836 38.7108 55.3883 38.513 55.4358 38.2991C55.5269 37.8674 55.5315 37.4225 55.4492 36.9891C55.2053 35.1027 54.8006 33.232 54.7229 31.3299C54.6452 29.4278 54.9212 27.4549 55.9423 25.8279C56.9634 24.2009 58.8367 23.0166 60.7663 23.1712C62.05 23.2708 63.2292 23.9258 64.5049 24.1013C65.265 24.1996 66.038 24.1273 66.7652 23.8898C67.4924 23.6524 68.1547 23.2561 68.7018 22.7311C68.8412 22.5974 69.4844 22.1809 69.4844 22.1809C69.4844 22.0839 69.3906 21.2403 69.0502 20.9311C66.5176 18.6439 61.9562 18.0046 58.6116 18.8351C55.267 19.6657 52.1314 21.9791 50.6922 25.0288C49.253 28.0785 49.6818 32.3648 50.4751 35.4564" fill="#263238"/>
<path d="M72.8638 25.4821C72.8638 25.4821 57.0036 20.5041 50.1428 33.908C50.1428 33.908 49.1163 30.5518 49.1163 28.7518C49.1163 27.5493 49.8507 20.3914 57.3868 18.1382C57.3868 18.1382 68.7366 13.9043 72.8638 25.4821Z" fill="#4BAA4D"/>
<path d="M59.228 25.8174C59.5098 26.2616 59.8932 26.6357 60.3481 26.9102C60.803 27.1848 61.317 27.3523 61.8494 27.3995C62.3818 27.4468 62.9182 27.3725 63.4162 27.1825C63.9142 26.9925 64.3603 26.692 64.7193 26.3048C64.877 26.6902 65.1542 27.0178 65.5119 27.2415C65.8697 27.4652 66.2901 27.5739 66.7142 27.5522C67.1383 27.5305 67.5448 27.3796 67.8767 27.1207C68.2087 26.8617 68.4494 26.5077 68.5651 26.1083C68.9951 26.5768 69.521 26.9517 70.1088 27.2087C70.7118 27.4261 71.4756 27.3423 71.8696 26.8497C72.2635 26.3572 72.1563 25.579 71.7597 25.0707C71.3265 24.5901 70.7721 24.2288 70.1517 24.0227C68.2714 23.2144 66.2053 22.9088 64.1646 23.1372C62.1412 23.3992 60.1821 24.3633 58.9171 25.9301" fill="#263238"/>
<g opacity="0.4">
<path d="M72.8638 25.4821C71.5443 24.1228 69.7352 23.3193 67.82 23.242C63.1407 23.0402 54.3852 25.6131 50.132 33.908C50.132 33.908 49.1056 30.5518 49.1056 28.7518C49.1056 27.5493 49.8399 20.3914 57.3761 18.1382C57.3868 18.1382 68.7366 13.9043 72.8638 25.4821Z" fill="black"/>
</g>
<path d="M50.8047 32.3386C53.155 28.82 56.3978 25.9118 60.0453 23.6926C63.6928 21.4735 69.7201 19.2648 73.8741 18.1906C75.123 17.8658 76.4228 17.5828 77.6958 17.7976C78.9688 18.0125 80.2123 18.8456 80.5259 20.0639C80.9225 21.5966 78.1407 23.9599 76.8355 24.8874C75.5304 25.8148 72.8638 27.1799 72.8638 27.1799C72.8638 27.1799 72.9013 24.3398 68.2488 23.7555C61.924 22.9459 50.8047 32.3386 50.8047 32.3386Z" fill="#4BAA4D"/>
<path d="M63.8135 20.7504C63.8135 20.7504 66.0968 19.5138 68.3936 19.2256C68.01 18.9341 67.5916 18.6895 67.1474 18.4972C65.9008 18.6986 64.6954 19.095 63.5776 19.671L63.8135 20.7504Z" fill="#E0E0E0"/>
<path d="M76.6854 55.4024L71.6551 54.3177L69.6076 53.8173L67.9031 51.234C67.9031 51.234 67.0991 55.8531 64.0465 58.3394C63.6332 58.67 63.1487 58.9049 62.6294 59.0265C62.1101 59.1481 61.5693 59.1533 61.0476 59.0416C60.3589 58.9001 59.5495 58.7272 58.9492 58.57C58.8205 58.5359 58.6812 58.4914 58.5311 58.439C56.3243 57.6379 54.4856 56.0877 53.3507 54.0715C52.6753 52.8977 52.1045 51.6925 52.3001 51.234L49.9122 56.0679L35.8422 62.4031L27.8531 81.4819L43.3355 85.9569L43.8179 101.677L40.9021 121.495L84.7013 121.523L83.1469 77.4314" fill="#4BAA4D"/>
<path d="M65.3625 72.4717C65.2733 72.4787 65.1836 72.4787 65.0945 72.4717L64.3146 72.4534L61.5301 72.3564H61.4765V72.3119C61.4309 71.1303 61.3746 69.7312 61.313 68.2352C61.2406 66.0789 61.1763 64.1296 61.1254 62.6965C61.1093 61.9996 61.0959 61.431 61.0852 61.0171C61.0852 60.831 61.0852 60.6791 61.0852 60.5612C61.0782 60.5081 61.0782 60.4544 61.0852 60.4014C61.0975 60.4529 61.1038 60.5056 61.1039 60.5586C61.1039 60.6791 61.1227 60.8206 61.1334 61.0145C61.1549 61.4284 61.1843 61.9969 61.2192 62.6912C61.2781 64.1244 61.3585 66.0737 61.447 68.2273C61.5006 69.7259 61.5488 71.125 61.5917 72.3067L61.5327 72.2516L64.3173 72.3957L65.0945 72.4455C65.1845 72.4447 65.2744 72.4535 65.3625 72.4717Z" fill="#263238"/>
<path d="M62.98 66.1026C63.0414 66.0605 63.114 66.0368 63.189 66.0345C63.363 66.0234 63.5366 66.0617 63.6888 66.145C63.8409 66.2282 63.9652 66.3527 64.0466 66.5034C64.1231 66.6505 64.1502 66.8173 64.1243 66.9803C64.0958 67.165 64.0129 67.3376 63.8859 67.4771C63.7589 67.6167 63.5931 67.7171 63.4088 67.7663C63.2222 67.8045 63.0284 67.7918 62.8487 67.7294C62.6691 67.667 62.5105 67.5574 62.3904 67.4126C62.293 67.2959 62.2249 67.1587 62.1914 67.0118C62.1579 66.8649 62.16 66.7123 62.1974 66.5663C62.239 66.3676 62.3397 66.1853 62.4869 66.0423C62.5887 65.9454 62.6637 65.9139 62.6664 65.9218C62.6691 65.9297 62.6128 65.9768 62.5271 66.079C62.4083 66.2225 62.3281 66.3927 62.2939 66.5742C62.2667 66.7048 62.2699 66.8398 62.3033 66.969C62.3367 67.0983 62.3994 67.2186 62.4869 67.3209C62.594 67.4445 62.733 67.5378 62.8894 67.5912C63.0459 67.6446 63.2141 67.6562 63.3766 67.6248C63.5348 67.5812 63.677 67.4945 63.7867 67.3748C63.8963 67.2551 63.9688 67.1074 63.9957 66.9488C64.018 66.8189 64.003 66.6855 63.9523 66.5634C63.9017 66.4413 63.8175 66.3353 63.7089 66.2572C63.5619 66.1424 63.3799 66.0788 63.1917 66.0764C63.0523 66.0869 62.98 66.1131 62.98 66.1026Z" fill="#263238"/>
<path d="M62.5056 60.5665C62.5675 60.5134 62.6438 60.4788 62.7253 60.467C62.9478 60.421 63.1798 60.4545 63.3793 60.5613C63.5208 60.6318 63.6416 60.7364 63.7303 60.8652C63.8334 61.016 63.885 61.1949 63.8777 61.3761C63.8693 61.5828 63.7972 61.7821 63.671 61.9481C63.5448 62.114 63.3702 62.2389 63.1702 62.3062C62.9657 62.3574 62.7503 62.3484 62.551 62.2803C62.3517 62.2123 62.1774 62.0882 62.05 61.9237C61.9369 61.7818 61.8689 61.6105 61.8543 61.4311C61.846 61.2765 61.8716 61.122 61.9294 60.9779C62.0125 60.7728 62.1598 60.5986 62.3501 60.4801C62.4164 60.4316 62.4954 60.4025 62.5779 60.3962C62.5779 60.3962 62.5002 60.4355 62.3823 60.5246C62.2165 60.6493 62.0917 60.8187 62.0232 61.0119C61.9694 61.1503 61.953 61.2999 61.9755 61.4463C61.998 61.5927 62.0588 61.7309 62.1518 61.8477C62.265 61.989 62.4176 62.0951 62.5913 62.1532C62.7649 62.2113 62.952 62.219 63.13 62.1752C63.3026 62.1154 63.4533 62.0072 63.5634 61.8641C63.6735 61.7211 63.7381 61.5496 63.7491 61.3709C63.7562 61.224 63.721 61.0782 63.6476 60.9499C63.5742 60.8216 63.4654 60.716 63.3337 60.6451C63.1535 60.5414 62.9439 60.4972 62.736 60.5194C62.5886 60.5377 62.5109 60.577 62.5056 60.5665Z" fill="#263238"/>
<path d="M61.0798 81.7126C61.0798 81.7126 61.1013 81.6995 61.1468 81.6837L61.3478 81.6078C61.5274 81.5475 61.782 81.4375 62.1063 81.2907C63.0118 80.8444 63.8431 80.2667 64.5719 79.5773C65.6432 78.5458 66.5901 77.3978 67.3939 76.1555C68.3992 74.6454 69.3172 73.0814 70.1436 71.471C71.6297 68.5356 72.9337 65.5154 74.0484 62.4267C74.4852 61.2425 74.8256 60.281 75.0641 59.6181L75.3321 58.8531C75.3616 58.7745 75.3884 58.709 75.4071 58.6566C75.4147 58.6338 75.4246 58.6119 75.4366 58.5911C75.4346 58.6153 75.4292 58.6391 75.4205 58.6618C75.4044 58.7142 75.383 58.7797 75.3589 58.8635C75.2972 59.0496 75.2142 59.3063 75.1096 59.6495C74.8872 60.3176 74.5602 61.2844 74.1314 62.4713C73.0456 65.5683 71.7547 68.5929 70.2669 71.526C69.4384 73.141 68.515 74.7078 67.5011 76.2184C66.6878 77.4673 65.7271 78.6184 64.6389 79.648C63.8985 80.3364 63.052 80.9066 62.1304 81.3379C61.8782 81.451 61.6196 81.5499 61.3559 81.634L61.1495 81.6968C61.1272 81.7055 61.1037 81.7108 61.0798 81.7126Z" fill="#263238"/>
<path d="M70.3071 76.4804C70.4223 76.4804 73.0889 76.3022 73.0889 76.3022C73.0889 76.3022 71.9874 78.2044 70.8404 78.9222H68.5061L70.3071 76.4804Z" fill="#FAFAFA"/>
<path d="M60.6135 87.4739C60.6592 87.4311 60.7095 87.3933 60.7636 87.3612L61.2138 87.0573C61.6024 86.7953 62.1626 86.4023 62.8352 85.8967C64.1752 84.8932 65.9601 83.3946 67.8683 81.6811C68.8224 80.8244 69.7443 80.0174 70.5322 79.2419C71.2392 78.5619 71.8957 77.8334 72.4966 77.062C72.8999 76.5417 73.2585 75.9896 73.5686 75.4114C73.6866 75.2097 73.7589 75.0446 73.8152 74.9346C73.8406 74.8766 73.8721 74.8213 73.909 74.7695C73.8918 74.8298 73.8694 74.8885 73.842 74.9451C73.7938 75.0577 73.7268 75.228 73.6169 75.435C73.3224 76.0264 72.9735 76.5902 72.5744 77.1197C71.9815 77.9042 71.3283 78.6434 70.6206 79.331C69.83 80.117 68.9135 80.9265 67.9594 81.7807C66.0512 83.4941 64.2637 84.9875 62.8942 85.9727C62.2108 86.4678 61.64 86.8451 61.2433 87.0993C61.0423 87.225 60.8842 87.3167 60.777 87.3822C60.7262 87.4187 60.6714 87.4495 60.6135 87.4739Z" fill="#263238"/>
<path d="M53.0988 116.59C53.0988 116.59 53.0988 116.566 53.1309 116.527C53.1631 116.488 53.1979 116.425 53.2408 116.354C53.34 116.205 53.49 115.985 53.691 115.707C54.093 115.157 54.7148 114.381 55.5349 113.47C57.1858 111.659 59.4986 109.188 62.0446 106.453L68.6079 99.4604L70.6045 97.3644L71.1405 96.7959L71.2852 96.6518L71.3388 96.6046C71.3388 96.6046 71.3254 96.6256 71.296 96.6596L71.162 96.8142L70.626 97.4011L68.6615 99.5364L62.1491 106.537L55.6099 113.527C54.7818 114.428 54.1493 115.191 53.7339 115.731C53.5276 115.993 53.3694 116.215 53.2649 116.362L53.1443 116.527C53.1309 116.549 53.1157 116.57 53.0988 116.59Z" fill="#263238"/>
<path d="M76.337 55.282C76.5675 55.62 81.7453 56.1833 83.0129 57.4199C84.2806 58.6565 96.9489 68.1095 96.9489 68.1095L87.92 79.9886L82.0937 78.7336L76.337 55.282Z" fill="#4BAA4D"/>
<path opacity="0.4" d="M95.4133 66.9567L85.2909 79.4226L87.92 79.9885L96.9382 68.0964L95.4133 66.9567Z" fill="black"/>
<path d="M79.0948 67.6484C79.0495 67.5131 79.0145 67.3748 78.9903 67.2344C78.9608 67.1008 78.926 66.9358 78.9019 66.7419C78.8777 66.548 78.8375 66.3279 78.8241 66.0816C78.8107 65.8354 78.7839 65.5576 78.7839 65.2773C78.7839 64.9969 78.7839 64.6799 78.8081 64.3551C78.8601 63.6485 78.9722 62.9474 79.1431 62.2591C79.3255 61.5741 79.5666 60.9053 79.864 60.26C80.006 59.9665 80.132 59.6836 80.2847 59.4321C80.4375 59.1805 80.5688 58.9474 80.7055 58.7404C80.8422 58.5334 80.9735 58.3552 81.0914 58.1954C81.1889 58.0584 81.2935 57.9263 81.405 57.7998C81.4927 57.686 81.5905 57.58 81.6971 57.4828C81.6239 57.6054 81.5406 57.722 81.4479 57.8312C81.3648 57.9413 81.2629 58.0749 81.1557 58.24C81.0485 58.405 80.9119 58.5806 80.7886 58.7928C80.6653 59.005 80.5206 59.2303 80.3866 59.4871C80.2526 59.7439 80.1186 60.0111 79.9819 60.3098C79.6997 60.9526 79.4685 61.6156 79.2905 62.2931C79.1235 62.9727 79.0098 63.6638 78.9501 64.3603C78.9313 64.6825 78.9072 64.9891 78.9153 65.2747C78.9233 65.5602 78.9153 65.8275 78.9367 66.0607C78.9581 66.2938 78.9742 66.5244 78.993 66.7183C79.0117 66.9122 79.0359 67.0772 79.0573 67.2108C79.0842 67.3552 79.0968 67.5017 79.0948 67.6484Z" fill="#263238"/>
<path d="M83.147 77.4157C82.732 76.6291 82.3589 75.8219 82.0294 74.9975C81.6561 74.1918 81.3252 73.3681 81.0378 72.5294C81.4529 73.3156 81.8268 74.1218 82.1581 74.9451C82.5321 75.751 82.8622 76.5757 83.147 77.4157Z" fill="#263238"/>
<path d="M43.3355 68.7855C43.3141 68.7855 43.097 68.4056 42.687 67.8161C42.152 67.0482 41.5397 66.3346 40.8592 65.686C40.1754 65.0423 39.4285 64.4657 38.6295 63.9647C38.0131 63.5821 37.6084 63.383 37.6191 63.3621C37.7218 63.3898 37.8208 63.4293 37.9139 63.48C38.1762 63.6018 38.432 63.7364 38.6804 63.8834C39.5048 64.3637 40.2692 64.9361 40.9584 65.5891C41.6452 66.2439 42.2531 66.9736 42.7701 67.7637C42.9657 68.0676 43.1131 68.3191 43.2042 68.4999C43.2598 68.5894 43.3039 68.6854 43.3355 68.7855Z" fill="#263238"/>
<path opacity="0.4" d="M27.8531 81.4741L28.4776 79.9885L45.6028 84.5473L44.9248 86.4101L27.8531 81.4741Z" fill="black"/>
<path d="M73.5713 75.6027H80.0917V78.2227L71.7489 78.1703C71.7489 78.1703 73.038 76.6533 73.5713 75.6027Z" fill="#FAFAFA"/>
<g opacity="0.2">
<path d="M50.3142 56.6443C50.55 58.6879 50.8073 60.797 51.8418 62.5891C52.8763 64.3812 54.8997 65.7934 56.982 65.4921C58.3703 65.2903 59.5468 64.3838 60.4928 63.3673C61.4389 62.3507 62.2322 61.2005 63.264 60.2704C63.8879 60.9274 64.5856 61.5136 65.3436 62.018C66.1095 62.5252 67.0291 62.7626 67.9513 62.6913C68.8598 62.5839 69.361 62.2302 69.6477 61.3813C68.6776 61.6747 68.1442 61.6302 67.1768 61.4494C66.1085 61.2492 65.1054 60.7998 64.2529 60.1394C63.6847 59.7019 63.4784 59.0443 62.7574 59.0914C62.0901 59.1281 61.5675 59.6442 61.128 60.1394C60.4184 60.9335 59.6401 61.6664 58.8018 62.3297C57.9978 62.9507 57.2206 63.3777 56.1968 63.3489C54.5111 63.3122 53.1309 62.018 52.2009 60.6425C51.3425 59.3743 50.7084 57.974 50.3249 56.5002" fill="black"/>
</g>
<path d="M70.0498 54.0951C70.0651 54.1428 70.075 54.192 70.0793 54.2418C70.0793 54.3388 70.1115 54.4802 70.1302 54.6636C70.1704 55.0304 70.2106 55.5623 70.2267 56.2356C70.2629 57.9579 70.0948 59.6785 69.7255 61.363V61.4049V61.4468H69.6853C68.7326 61.6651 67.7383 61.639 66.799 61.3708C66.0309 61.1701 65.3051 60.8384 64.655 60.391C64.215 60.0986 63.8205 59.7456 63.4838 59.343C63.3933 59.2342 63.3091 59.1205 63.2319 59.0024C63.2019 58.9621 63.1759 58.9191 63.1542 58.874C63.5914 59.4329 64.1159 59.921 64.7086 60.3202C65.3552 60.7472 66.071 61.0643 66.8258 61.2582C67.7449 61.512 68.7147 61.5345 69.6451 61.3237L69.5942 61.3735V61.3315C69.9592 59.6557 70.1389 57.9464 70.1302 56.233C70.1302 55.5754 70.1007 55.0435 70.0793 54.6741C70.0793 54.5038 70.0605 54.365 70.0525 54.2523C70.0438 54.2003 70.0429 54.1473 70.0498 54.0951Z" fill="#263238"/>
<path d="M61.908 59.2644C61.8868 59.3203 61.8579 59.3732 61.8222 59.4216C61.7325 59.5669 61.6341 59.7069 61.5274 59.8408C61.1272 60.329 60.6862 60.7838 60.2089 61.2006C59.9114 61.4626 59.5764 61.7534 59.2146 62.0521C59.0324 62.2014 58.8501 62.3586 58.6464 62.5158C58.4367 62.6706 58.2154 62.8098 57.9845 62.9324C57.4884 63.1998 56.9408 63.3631 56.3765 63.4118C55.7608 63.4629 55.1439 63.3295 54.6077 63.0293C54.0857 62.7253 53.6178 62.3404 53.2221 61.8896C52.847 61.4813 52.498 61.0508 52.1769 60.6006C51.6357 59.8367 51.1785 59.0191 50.8128 58.1614C50.5678 57.5847 50.3671 56.9909 50.2125 56.385C50.1562 56.1702 50.1214 56.0025 50.0999 55.8872C50.085 55.8297 50.0761 55.7709 50.0731 55.7117C50.0977 55.7662 50.1157 55.8234 50.1267 55.882C50.1589 55.9946 50.2018 56.1597 50.2634 56.3719C50.4392 56.9687 50.6532 57.5541 50.9039 58.1247C51.2794 58.9692 51.7419 59.7742 52.2841 60.5272C52.6038 60.9712 52.951 61.3956 53.324 61.7979C53.7067 62.2369 54.1591 62.6129 54.664 62.9114C55.1769 63.1977 55.7664 63.3256 56.355 63.2782C56.9031 63.2321 57.4357 63.077 57.9202 62.8223C58.1476 62.7045 58.3653 62.5696 58.5714 62.4189C58.767 62.2722 58.9546 62.1123 59.1369 61.9656C59.5014 61.6695 59.839 61.3918 60.1392 61.1298C60.6182 60.726 61.0661 60.2881 61.4792 59.8198C61.6212 59.6522 61.7258 59.5133 61.7954 59.419C61.8283 59.3644 61.866 59.3126 61.908 59.2644Z" fill="#263238"/>
<path d="M56.1353 89.3681L58.2015 86.4232C58.2015 86.4232 59.6219 81.5972 59.429 80.9212C59.236 80.2453 58.6089 77.7301 58.7563 77.6986C58.9037 77.6672 60.4501 77.1065 61.2889 79.1239C61.8115 80.3815 61.983 82.0374 62.0393 83.1063C62.0454 83.2384 62.0808 83.3676 62.1429 83.485C62.2051 83.6025 62.2926 83.7053 62.3993 83.7865C62.506 83.8677 62.6295 83.9253 62.7612 83.9553C62.8929 83.9853 63.0297 83.9871 63.1622 83.9604C64.5906 83.6722 66.9678 83.2347 67.5333 83.3683C68.3534 83.5596 69.0877 84.5814 69.1574 84.9246C69.227 85.2678 68.6642 86.0407 68.6642 86.0407C68.6642 86.0407 69.361 86.3892 69.5754 86.9158C69.6049 86.9865 69.6291 87.0573 69.6505 87.1254C69.7159 87.3365 69.7239 87.5606 69.6736 87.7757C69.6233 87.9907 69.5165 88.1892 69.3637 88.3515L69.144 88.5873C69.144 88.5873 70.015 88.8205 70.1222 89.3078C70.1803 89.6637 70.1703 90.0271 70.0927 90.3794L69.2753 91.2047C69.5031 91.4125 69.6524 91.6895 69.6987 91.9907C69.7416 92.4414 68.5169 93.5627 68.5169 93.5627L63.2614 95.3967L61.1763 95.9207L56.1353 89.3681Z" fill="#B78876"/>
<path d="M68.6803 86.0461C68.0798 86.2041 67.4716 86.3326 66.8579 86.4312C66.255 86.5753 65.645 86.6889 65.0302 86.7718C65.1947 86.6932 65.3684 86.6342 65.5474 86.5962C65.8717 86.5072 66.3246 86.3971 66.8311 86.2976C67.3376 86.198 67.7959 86.1246 68.1336 86.0827C68.3133 86.0466 68.4972 86.0343 68.6803 86.0461Z" fill="#AA6550"/>
<path d="M69.1601 88.5874C68.7134 88.7922 68.2476 88.9545 67.7691 89.0721C67.3047 89.235 66.8255 89.3543 66.338 89.4284C66.7847 89.2236 67.2505 89.0613 67.7289 88.9437C68.1933 88.7808 68.6725 88.6615 69.1601 88.5874Z" fill="#AA6550"/>
<path d="M69.4736 91.0947C69.0028 91.3704 68.5088 91.6061 67.9969 91.7995C67.5038 92.0356 66.9909 92.2301 66.464 92.3811C66.9348 92.1055 67.4288 91.8697 67.9407 91.6764C68.4338 91.4403 68.9467 91.2457 69.4736 91.0947Z" fill="#AA6550"/>
<path d="M44.027 107.567L63.3551 94.8912L58.4775 86.2452L40.8378 95.1139L42.8397 85.7971L30.8682 82.3335L27.8719 98.2893C27.411 105.384 33.2319 111.112 40.2482 109.249C41.5931 108.893 42.8696 108.325 44.027 107.567Z" fill="#B78876"/>
<path d="M38.2837 100.129C38.2489 100.053 38.2263 99.9725 38.2167 99.8901C38.1769 99.6694 38.1545 99.446 38.1497 99.222C38.1396 98.4766 38.3105 97.7394 38.6482 97.071C38.9906 96.4043 39.4915 95.8275 40.1088 95.3889C40.2927 95.2555 40.4882 95.1381 40.693 95.0379C40.7665 94.9959 40.846 94.965 40.9289 94.9462C40.9289 94.9697 40.6153 95.1191 40.1678 95.4702C39.5817 95.9176 39.1053 96.4874 38.7733 97.1378C38.4413 97.7883 38.2622 98.503 38.2489 99.2299C38.2355 99.7801 38.3239 100.126 38.2837 100.129Z" fill="#AA6550"/>
<path d="M87.92 79.9886C88.0406 79.8261 101.685 87.9534 101.685 87.9534L106.058 107.433L112.354 109.692C112.354 109.692 114.318 88.0136 112.823 84.6391C111.327 81.2645 96.1664 69.1234 96.1664 69.1234L87.92 79.9886Z" fill="#B78876"/>
<path d="M104.665 86.46C104.361 86.9066 103.957 87.2794 103.483 87.5499C103.033 87.8591 102.519 88.0651 101.977 88.1525C102.466 87.938 102.944 87.6984 103.408 87.4346C103.845 87.1329 104.265 86.8075 104.665 86.46Z" fill="#AA6550"/>
<path d="M71.5104 80.0305L72.5797 98.7268L94.3842 97.2858L93.7249 83.3684L90.5491 79.1895L71.5104 80.0305Z" fill="#263238"/>
<path d="M66.5551 99.1434C66.6194 99.5024 68.4713 116.435 68.4713 116.435L100.923 114.232L106.415 113.512L103.882 97.7443L100.004 96.8352L66.5551 99.1434Z" fill="#4BAA4D"/>
<path opacity="0.4" d="M100.004 96.8325L66.5551 99.1434C66.6194 99.5023 68.4713 116.435 68.4713 116.435L102.258 114.138L100.004 96.8325Z" fill="black"/>
<path d="M91.1146 97.5006L72.5797 98.7268L71.5104 80.0305L90.5491 79.1895L91.1146 97.5006Z" fill="#455A64"/>
<path d="M78.4221 79.7265L78.8134 85.4879L79.805 84.9325L80.3544 85.4879L81.0378 84.9325L82.0937 85.4879V79.5641L78.4221 79.7265Z" fill="#263238"/>
<path d="M86.17 97.8937L84.9023 83.861L97.292 87.1988L98.4873 96.885L86.17 97.8937Z" fill="#4BAA4D"/>
<path d="M97.284 87.2015C97.2619 87.2374 97.2359 87.2708 97.2062 87.301L96.9677 87.5761L96.0565 88.5927L92.8914 92.0642L92.8432 92.1166L92.7923 92.0668L91.12 90.3376L86.706 85.7788L85.3794 84.385L85.023 84.0024C84.9788 83.96 84.9401 83.9125 84.9077 83.861C84.9567 83.8972 85.0024 83.9376 85.0444 83.9815L85.4196 84.3483L86.7757 85.7107L91.2191 90.2433L92.9022 91.9751H92.803L96.019 88.535L96.9597 87.5447L97.2143 87.2827C97.2346 87.2534 97.258 87.2262 97.284 87.2015Z" fill="#263238"/>
<path d="M90.3454 89.8004C90.3802 89.8188 89.4958 91.4746 88.3729 93.4999C87.25 95.5251 86.312 97.1522 86.2771 97.1338C86.2423 97.1155 87.1267 95.4596 88.2496 93.4344C89.3725 91.4091 90.3159 89.7821 90.3454 89.8004Z" fill="#263238"/>
<path d="M98.1979 96.8849C98.1657 96.9033 97.3081 95.5618 96.2817 93.8903C95.2552 92.2187 94.4485 90.8432 94.4834 90.8223C94.5182 90.8013 95.3732 92.1454 96.3996 93.8195C97.426 95.4937 98.2327 96.8666 98.1979 96.8849Z" fill="#263238"/>
<path d="M92.8244 97.346L92.015 88.4092L99.9049 90.5366L100.666 96.7041L92.8244 97.346Z" fill="#4BAA4D"/>
<path opacity="0.4" d="M92.8244 97.346L92.015 88.4092L99.9049 90.5366L100.666 96.7041L92.8244 97.346Z" fill="white"/>
<path d="M99.9049 90.5366C99.8486 90.6243 99.783 90.706 99.7093 90.7803C99.5619 90.9506 99.3689 91.168 99.1358 91.4327L97.1258 93.6492L97.0775 93.7042L97.0266 93.6518L95.9546 92.5514C94.8531 91.4222 93.8615 90.3925 93.1487 89.6432L92.3125 88.7498C92.2043 88.6448 92.1057 88.5309 92.0177 88.4092C92.1367 88.5015 92.2479 88.6031 92.35 88.7131L93.221 89.5751C93.9527 90.3087 94.955 91.3279 96.0565 92.4571L97.1285 93.5601H97.0159L99.0607 91.375L99.6664 90.7488C99.7389 90.6709 99.8187 90.5998 99.9049 90.5366Z" fill="#263238"/>
<path d="M95.4829 92.1925C95.5151 92.2108 94.963 93.2693 94.2474 94.5505C93.8368 95.3408 93.3842 96.1095 92.8914 96.8535C93.26 96.047 93.6715 95.26 94.1242 94.4955C94.535 93.7048 94.9886 92.9361 95.4829 92.1925Z" fill="#263238"/>
<path d="M100.484 96.7042C100.031 96.0978 99.6155 95.4652 99.2404 94.8099C98.8241 94.1778 98.449 93.5206 98.1174 92.8423C98.9826 94.0834 99.7728 95.3729 100.484 96.7042Z" fill="#263238"/>
<path d="M97.8521 90.1594V90.8773L99.0045 91.0083L99.0661 90.4607L97.8521 90.1594Z" fill="white"/>
<path d="M93.7838 86.515V87.563L95.96 87.9141L96.0806 87.1124L93.7838 86.515Z" fill="white"/>
<path d="M85.291 103.118L85.1838 97.8937L80.8502 98.1793L81.3139 103.487L85.291 103.118Z" fill="#4BAA4D"/>
<path d="M99.4229 105.863L92.1472 106.537L92.7578 112.829L100.033 112.154L99.4229 105.863Z" fill="#FAFAFA"/>
<path d="M100.023 112.162C100.014 112.122 100.008 112.082 100.004 112.042C100.004 111.955 99.98 111.842 99.9639 111.701C99.9318 111.397 99.8835 110.965 99.8246 110.422C99.7093 109.317 99.5566 107.755 99.3529 105.877L99.4172 105.929L92.1464 106.613C92.1303 106.629 92.2643 106.474 92.208 106.54V106.587V106.642V106.747L92.2295 106.961L92.2697 107.386C92.2991 107.666 92.3259 107.944 92.3527 108.222C92.4037 108.774 92.4573 109.314 92.5082 109.843C92.6073 110.891 92.7038 111.9 92.7896 112.825L92.7226 112.773L97.9727 112.317L99.4628 112.194L99.8621 112.165C99.9094 112.161 99.9569 112.161 100.004 112.165C99.9627 112.174 99.9206 112.18 99.8782 112.183L99.4923 112.228L98.0183 112.38L92.736 112.904H92.6743V112.843C92.5805 111.916 92.4814 110.915 92.3769 109.862C92.3268 109.338 92.2741 108.797 92.2187 108.24C92.1919 107.962 92.1651 107.685 92.1383 107.402C92.1249 107.263 92.1115 107.121 92.0955 106.98L92.0767 106.765V106.66V106.605V106.558C92.0204 106.623 92.1517 106.466 92.141 106.482L99.4145 105.819H99.4735V105.877C99.645 107.771 99.7871 109.348 99.8889 110.464C99.9345 111.001 99.9693 111.429 99.9961 111.732C99.9961 111.871 100.015 111.981 100.02 112.065C100.024 112.097 100.024 112.13 100.023 112.162Z" fill="#263238"/>
<path d="M98.8437 107.378C98.8437 107.417 97.576 107.577 96.0029 107.74C95.0559 107.862 94.1033 107.937 93.1487 107.965C93.1487 107.928 94.4163 107.766 95.9895 107.603C97.5626 107.441 98.841 107.341 98.8437 107.378Z" fill="#263238"/>
<path d="M98.8008 108.447C98.548 108.536 98.2867 108.6 98.0209 108.638C97.5331 108.733 96.8551 108.843 96.102 108.929C95.3489 109.016 94.6602 109.063 94.1644 109.078C93.8969 109.102 93.6278 109.102 93.3604 109.078C93.6254 109.027 93.8943 108.997 94.1644 108.989C94.6575 108.945 95.3382 108.885 96.0886 108.798C96.839 108.712 97.517 108.617 98.0075 108.536C98.2693 108.487 98.5344 108.457 98.8008 108.447Z" fill="#263238"/>
<path d="M99.109 110.784C98.855 110.872 98.593 110.936 98.3264 110.975C97.8387 111.07 97.1606 111.18 96.4075 111.266C95.6545 111.353 94.9684 111.4 94.4699 111.415C94.2025 111.441 93.9333 111.441 93.6659 111.415C93.9309 111.364 94.1998 111.334 94.4699 111.326C94.963 111.284 95.6464 111.222 96.3968 111.135C97.1472 111.049 97.8253 110.954 98.3157 110.873C98.5775 110.824 98.8426 110.794 99.109 110.784Z" fill="#263238"/>
<path d="M98.7419 109.587C97.8672 109.78 96.9824 109.927 96.0914 110.027C95.2041 110.174 94.3096 110.276 93.4114 110.331C94.2867 110.14 95.1714 109.994 96.0619 109.891C96.9494 109.745 97.8439 109.643 98.7419 109.587Z" fill="#263238"/>
<path d="M105.166 119.331C105.166 119.331 111.156 115.456 111.617 113.475C112.078 111.494 112.354 109.692 112.354 109.692L105.954 107.1L106.589 109.354C106.589 109.354 104.295 110.687 104.059 112.304C103.904 113.38 100.937 115.225 100.937 115.225C100.69 114.933 100.376 114.703 100.02 114.553C99.665 114.404 99.2782 114.338 98.8919 114.363L96.3995 114.536L98.0853 118.248L105.166 119.331Z" fill="#B78876"/>
<path d="M107.505 114.02C107.418 114.072 107.323 114.11 107.224 114.132C107.036 114.193 106.758 114.253 106.42 114.358C106.039 114.49 105.686 114.691 105.38 114.95C104.995 115.271 104.563 115.536 104.099 115.736C103.241 116.093 102.288 116.171 101.382 115.959C101.222 115.929 101.069 115.873 100.929 115.794C100.871 115.762 100.824 115.714 100.795 115.656C100.765 115.598 100.754 115.533 100.763 115.469C100.767 115.429 100.782 115.391 100.805 115.358C100.828 115.325 100.86 115.298 100.897 115.28C100.95 115.262 100.98 115.28 100.98 115.28C100.98 115.28 100.95 115.28 100.91 115.309C100.882 115.329 100.859 115.355 100.843 115.385C100.826 115.415 100.817 115.448 100.816 115.482C100.811 115.536 100.823 115.59 100.851 115.637C100.879 115.684 100.921 115.721 100.972 115.744C101.109 115.81 101.255 115.855 101.406 115.877C102.292 116.054 103.213 115.963 104.046 115.615C104.499 115.418 104.921 115.159 105.3 114.845C105.621 114.585 105.99 114.387 106.388 114.263C106.731 114.169 107.01 114.125 107.192 114.077C107.295 114.05 107.4 114.031 107.505 114.02Z" fill="#AA6550"/>
<path d="M103.357 117.025C103.357 117.046 103.049 116.873 102.539 116.666C101.876 116.401 101.176 116.23 100.462 116.16C100.253 116.139 100.047 116.134 99.8488 116.129H99.8112L99.7898 116.097C99.4796 115.623 99.1055 115.191 98.6776 114.814C98.3533 114.528 98.1416 114.381 98.1416 114.366C98.1416 114.35 98.2059 114.387 98.3078 114.449C98.4523 114.541 98.5919 114.64 98.7258 114.745C99.1827 115.11 99.578 115.542 99.897 116.027L99.8407 115.995C100.044 115.995 100.253 115.995 100.468 116.027C101.196 116.095 101.907 116.282 102.572 116.579C102.772 116.669 102.966 116.77 103.153 116.883C103.228 116.92 103.297 116.968 103.357 117.025Z" fill="#AA6550"/>
<path d="M104.976 115.961C104.976 115.998 104.571 116.147 104.099 116.409C103.628 116.671 103.282 116.946 103.255 116.915C103.697 116.411 104.306 116.073 104.976 115.961Z" fill="#AA6550"/>
<path d="M108.221 108.992C108.221 109.034 107.803 108.992 107.326 109.11C106.849 109.228 106.522 109.469 106.484 109.435C106.706 109.214 106.984 109.057 107.29 108.979C107.596 108.901 107.918 108.906 108.221 108.992Z" fill="#AA6550"/>
<path d="M20.8424 106.757C21.6303 107.674 22.9623 107.231 23.5385 106.579C24.1147 105.927 24.3023 105.041 24.4711 104.195C24.8517 102.261 25.2322 100.236 24.6426 98.3522C24.4905 97.779 24.1799 97.2578 23.7448 96.8457C23.5246 96.6437 23.254 96.5017 22.96 96.4342C22.6661 96.3666 22.3591 96.3757 22.0698 96.4606C21.3998 96.6964 21.0327 97.3907 20.7834 98.0326C20.0445 99.9543 19.7534 102.013 19.9312 104.059C20.0143 105.012 20.2206 106 20.8424 106.739" fill="#4BAA4D"/>
<g opacity="0.2">
<path d="M20.8424 106.757C21.6303 107.674 22.9623 107.231 23.5385 106.579C24.1147 105.927 24.3023 105.041 24.4711 104.195C24.8517 102.261 25.2322 100.236 24.6426 98.3522C24.4905 97.779 24.1799 97.2578 23.7448 96.8457C23.5246 96.6437 23.254 96.5017 22.96 96.4342C22.6661 96.3666 22.3591 96.3757 22.0698 96.4606C21.3998 96.6964 21.0327 97.3907 20.7834 98.0326C20.0445 99.9543 19.7534 102.013 19.9312 104.059C20.0143 105.012 20.2206 106 20.8424 106.739" fill="black"/>
</g>
<path d="M23.9163 111.481C25.0097 110.803 26.3524 110.609 27.6415 110.695C28.3356 110.747 29.0646 110.884 29.5764 111.345C30.0883 111.806 30.2545 112.681 29.7614 113.158C29.4378 113.416 29.0319 113.555 28.6143 113.551C27.6174 113.627 26.4971 113.551 25.7574 114.209C25.334 114.581 25.0821 115.162 24.5541 115.374C24.2885 115.459 24.0019 115.457 23.7375 115.369C23.4731 115.28 23.2452 115.11 23.0882 114.884C22.784 114.418 22.6755 113.855 22.7853 113.312C22.8177 112.943 22.9366 112.586 23.1327 112.268C23.3287 111.95 23.5969 111.681 23.9163 111.481Z" fill="#4BAA4D"/>
<path d="M19.0467 108.329C19.7275 107.381 19.7543 106.081 19.3147 105.004C18.8752 103.928 18.023 103.058 17.0743 102.366C15.9513 101.553 14.6768 100.962 13.3223 100.626C12.7963 100.471 12.2425 100.429 11.6982 100.501C11.431 100.544 11.1783 100.649 10.9614 100.808C10.7445 100.967 10.5698 101.174 10.452 101.412C10.1438 102.141 10.5779 102.956 11.0282 103.611C11.8203 104.766 12.7029 105.859 13.668 106.88C14.4479 107.7 15.3296 108.5 16.4311 108.806C17.5325 109.113 18.634 108.966 19.1352 108.196" fill="#4BAA4D"/>
<path d="M22.1422 121.51C22.1653 121.361 22.1725 121.21 22.1636 121.06C22.1636 120.735 22.1636 120.326 22.1636 119.839C22.1706 119.235 22.2099 118.633 22.2815 118.034C22.378 117.304 22.5349 116.583 22.7505 115.877C22.9592 115.173 23.2697 114.502 23.6725 113.884C24.0002 113.38 24.4388 112.954 24.9562 112.636C25.3068 112.426 25.6895 112.271 26.0898 112.178C26.2418 112.157 26.3915 112.123 26.5374 112.076C26.383 112.069 26.2283 112.079 26.0764 112.107C25.6578 112.177 25.255 112.318 24.8865 112.524C24.3403 112.838 23.8753 113.271 23.5277 113.789C23.1081 114.418 22.7849 115.104 22.5683 115.825C22.3505 116.541 22.1963 117.274 22.1073 118.015C22.0447 118.62 22.0188 119.228 22.0296 119.836C22.0296 120.36 22.0618 120.774 22.0805 121.062C22.0835 121.214 22.1041 121.364 22.1422 121.51Z" fill="#263238"/>
<path d="M22.1421 120.57C22.1492 120.501 22.1492 120.432 22.1421 120.363C22.1421 120.208 22.11 120.012 22.0885 119.773C22.0403 119.262 21.9733 118.521 21.917 117.604C21.7964 115.77 21.7267 113.234 21.783 110.433C21.8393 107.632 22.0296 105.099 22.2466 103.275C22.2949 102.817 22.3458 102.405 22.3994 102.044C22.453 101.682 22.4905 101.37 22.5334 101.119C22.5763 100.867 22.5977 100.687 22.6218 100.532C22.6359 100.464 22.6422 100.395 22.6406 100.325C22.6124 100.389 22.5934 100.457 22.5843 100.527C22.5522 100.679 22.512 100.87 22.461 101.106C22.4101 101.342 22.3538 101.669 22.2949 102.031C22.2359 102.392 22.1716 102.801 22.1126 103.259C21.809 105.639 21.6363 108.033 21.5954 110.43C21.5391 113.236 21.6276 115.78 21.783 117.614C21.8554 118.531 21.9438 119.273 22.0162 119.781C22.051 120.02 22.0832 120.213 22.1046 120.368C22.11 120.436 22.1226 120.504 22.1421 120.57Z" fill="#263238"/>
<path d="M21.708 115.686C21.7055 115.48 21.6858 115.274 21.649 115.07C21.5874 114.677 21.4802 114.112 21.3033 113.42C21.0897 112.612 20.8302 111.817 20.5261 111.038C20.1598 110.081 19.7245 109.15 19.2236 108.253C18.3436 106.598 17.1631 105.113 15.7396 103.87C15.4915 103.659 15.2311 103.462 14.9597 103.28C14.8418 103.199 14.7373 103.118 14.6301 103.055L14.3353 102.89C14.1558 102.782 13.9686 102.687 13.7752 102.604C13.7484 102.646 14.5792 103.029 15.6512 103.97C17.0308 105.227 18.181 106.704 19.0521 108.34C19.5513 109.227 19.9909 110.145 20.368 111.088C20.7217 111.958 20.979 112.762 21.172 113.446C21.3649 114.13 21.4909 114.688 21.574 115.076C21.6015 115.282 21.6463 115.487 21.708 115.686Z" fill="#263238"/>
</svg>
