<svg width="35" height="35" viewBox="0 0 35 35" fill="none" xmlns="http://www.w3.org/2000/svg">
<path d="M25.3328 28.9144L29.4744 24.8369L28.5615 23.9225L25.3328 27.106L23.94 25.6841L23.0257 26.6058L25.3328 28.9144ZM9.87296 12.7327H25.13V11.2744H9.8715L9.87296 12.7327ZM26.25 32.2525C24.6255 32.2525 23.2473 31.6862 22.1157 30.5535C20.983 29.4219 20.4167 28.0437 20.4167 26.4191C20.4167 24.7946 20.983 23.416 22.1157 22.2833C23.2483 21.1507 24.6264 20.5848 26.25 20.5858C27.8737 20.5868 29.2523 21.1526 30.3859 22.2833C31.5195 23.414 32.0853 24.7926 32.0834 26.4191C32.0834 28.0428 31.5175 29.4209 30.3859 30.5535C29.2523 31.6862 27.8737 32.2525 26.25 32.2525ZM5.83337 30.2881V8.18998C5.83337 7.53665 6.06282 6.98054 6.52171 6.52165C6.9806 6.06276 7.53671 5.83331 8.19004 5.83331H26.8115C27.4629 5.83331 28.0185 6.06276 28.4784 6.52165C28.9373 6.98054 29.1667 7.53665 29.1667 8.18998V16.8583C28.2995 16.5735 27.4109 16.4271 26.5009 16.4194C25.5909 16.4116 24.694 16.5287 23.8102 16.7708H9.8715V18.2291H20.5348C19.8037 18.7357 19.1591 19.3302 18.6011 20.0127C18.043 20.6952 17.5832 21.4467 17.2215 22.2673H9.87296V23.7256H16.7417C16.6367 24.1184 16.555 24.5146 16.4967 24.9141C16.4384 25.3137 16.4087 25.7308 16.4078 26.1654C16.4078 26.8314 16.4773 27.492 16.6163 28.1473C16.7553 28.8026 16.9643 29.434 17.2434 30.0416L17.1938 30.0912L15.5386 28.8866L13.5757 30.2881L11.6127 28.8866L9.64983 30.2881L7.68546 28.8866L5.83337 30.2881Z" fill="#1B881D"/>
</svg>
