<svg width="35" height="35" viewBox="0 0 35 35" fill="none" xmlns="http://www.w3.org/2000/svg">
<path d="M31.2565 7.08895L22.5065 29.6931C22.4199 29.917 22.2795 30.1161 22.0975 30.2726C21.9156 30.4292 21.6978 30.5384 21.4635 30.5907C21.2293 30.6429 20.9857 30.6365 20.7545 30.572C20.5233 30.5075 20.3116 30.387 20.1381 30.221L15.2061 25.5033L12.1815 28.5265C12.0794 28.6282 11.9495 28.6974 11.8081 28.7254C11.6668 28.7533 11.5203 28.7388 11.3872 28.6835C11.2541 28.6283 11.1403 28.5348 11.0603 28.415C10.9803 28.2952 10.9375 28.1543 10.9375 28.0102V21.42L3.36731 14.1794C3.17948 13.9997 3.0431 13.773 2.97228 13.5229C2.90146 13.2728 2.89878 13.0083 2.96452 12.7568C3.03025 12.5053 3.16202 12.276 3.34617 12.0925C3.53031 11.909 3.76016 11.7781 4.01189 11.7133L29.5327 5.15083C29.7922 5.08436 30.0649 5.09063 30.3211 5.16895C30.5772 5.24728 30.8068 5.39462 30.9847 5.59483C31.1626 5.79504 31.282 6.04038 31.3297 6.30394C31.3773 6.5675 31.3515 6.8391 31.255 7.08895H31.2565ZM27.7084 8.75145L11.7134 19.18L14.2436 21.6008L27.7084 8.75145Z" fill="#1B881D"/>
</svg>
